<mxfile host="app.diagrams.net" agent="Mozilla/5.0 (Windows NT 10.0; Win64; x64) AppleWebKit/537.36 (KHTML, like Gecko) Chrome/138.0.0.0 Safari/537.36" version="27.1.6" pages="5">
  <diagram name="ACTIVITY_DIAGRAM" id="hOJ8-erxTvKJeJ3p1nCR">
    <mxGraphModel dx="1104" dy="688" grid="1" gridSize="10" guides="1" tooltips="1" connect="1" arrows="1" fold="1" page="1" pageScale="1" pageWidth="2336" pageHeight="1654" math="0" shadow="0">
      <root>
        <mxCell id="0" />
        <mxCell id="1" parent="0" />
        <mxCell id="TGCLbbCgSUUB1Ax1djj9-1" value="&lt;p style=&quot;margin:0px;margin-top:4px;text-align:center;&quot;&gt;&lt;b&gt;users&lt;/b&gt;&lt;/p&gt;&lt;hr size=&quot;1&quot; style=&quot;border-style:solid;&quot;&gt;&lt;div style=&quot;height:2px;&quot;&gt;&lt;/div&gt;" style="verticalAlign=top;align=left;overflow=fill;html=1;whiteSpace=wrap;" parent="1" vertex="1">
          <mxGeometry x="250" y="380" width="200" height="750" as="geometry" />
        </mxCell>
        <mxCell id="TGCLbbCgSUUB1Ax1djj9-2" value="&lt;p style=&quot;margin:0px;margin-top:4px;text-align:center;&quot;&gt;&lt;b&gt;Sistem&lt;/b&gt;&lt;/p&gt;&lt;hr size=&quot;1&quot; style=&quot;border-style:solid;&quot;&gt;&lt;div style=&quot;height:2px;&quot;&gt;&lt;/div&gt;" style="verticalAlign=top;align=left;overflow=fill;html=1;whiteSpace=wrap;" parent="1" vertex="1">
          <mxGeometry x="450" y="380" width="200" height="750" as="geometry" />
        </mxCell>
        <mxCell id="TGCLbbCgSUUB1Ax1djj9-3" value="&lt;p style=&quot;margin:0px;margin-top:4px;text-align:center;&quot;&gt;&lt;b&gt;Admin&lt;/b&gt;&lt;/p&gt;&lt;hr size=&quot;1&quot; style=&quot;border-style:solid;&quot;&gt;&lt;div style=&quot;height:2px;&quot;&gt;&lt;/div&gt;" style="verticalAlign=top;align=left;overflow=fill;html=1;whiteSpace=wrap;" parent="1" vertex="1">
          <mxGeometry x="650" y="380" width="200" height="750" as="geometry" />
        </mxCell>
        <mxCell id="TGCLbbCgSUUB1Ax1djj9-4" value="login" style="rounded=1;whiteSpace=wrap;html=1;" parent="1" vertex="1">
          <mxGeometry x="290" y="480" width="120" height="30" as="geometry" />
        </mxCell>
        <mxCell id="TGCLbbCgSUUB1Ax1djj9-5" value="view login" style="rounded=1;whiteSpace=wrap;html=1;" parent="1" vertex="1">
          <mxGeometry x="485" y="480" width="120" height="30" as="geometry" />
        </mxCell>
        <mxCell id="TGCLbbCgSUUB1Ax1djj9-6" value="login" style="rounded=1;whiteSpace=wrap;html=1;" parent="1" vertex="1">
          <mxGeometry x="690" y="480" width="120" height="30" as="geometry" />
        </mxCell>
        <mxCell id="TGCLbbCgSUUB1Ax1djj9-7" value="" style="endArrow=classic;html=1;rounded=0;exitX=1;exitY=0.5;exitDx=0;exitDy=0;entryX=0;entryY=0.5;entryDx=0;entryDy=0;" parent="1" source="TGCLbbCgSUUB1Ax1djj9-5" target="TGCLbbCgSUUB1Ax1djj9-6" edge="1">
          <mxGeometry width="50" height="50" relative="1" as="geometry">
            <mxPoint x="630" y="630" as="sourcePoint" />
            <mxPoint x="680" y="580" as="targetPoint" />
          </mxGeometry>
        </mxCell>
        <mxCell id="TGCLbbCgSUUB1Ax1djj9-8" value="" style="endArrow=classic;html=1;rounded=0;exitX=0;exitY=0.5;exitDx=0;exitDy=0;" parent="1" source="TGCLbbCgSUUB1Ax1djj9-5" target="TGCLbbCgSUUB1Ax1djj9-4" edge="1">
          <mxGeometry width="50" height="50" relative="1" as="geometry">
            <mxPoint x="470" y="560" as="sourcePoint" />
            <mxPoint x="555" y="560" as="targetPoint" />
          </mxGeometry>
        </mxCell>
        <mxCell id="TGCLbbCgSUUB1Ax1djj9-9" value="" style="ellipse;html=1;shape=startState;fillColor=#000000;strokeColor=#ff0000;" parent="1" vertex="1">
          <mxGeometry x="335" y="400" width="30" height="30" as="geometry" />
        </mxCell>
        <mxCell id="TGCLbbCgSUUB1Ax1djj9-10" value="" style="edgeStyle=orthogonalEdgeStyle;html=1;verticalAlign=bottom;endArrow=open;endSize=8;strokeColor=#ff0000;rounded=0;exitX=0.5;exitY=1;exitDx=0;exitDy=0;" parent="1" source="TGCLbbCgSUUB1Ax1djj9-9" edge="1">
          <mxGeometry relative="1" as="geometry">
            <mxPoint x="350" y="480" as="targetPoint" />
          </mxGeometry>
        </mxCell>
        <mxCell id="TGCLbbCgSUUB1Ax1djj9-11" value="" style="edgeStyle=orthogonalEdgeStyle;rounded=0;orthogonalLoop=1;jettySize=auto;html=1;" parent="1" source="TGCLbbCgSUUB1Ax1djj9-12" target="TGCLbbCgSUUB1Ax1djj9-16" edge="1">
          <mxGeometry relative="1" as="geometry" />
        </mxCell>
        <mxCell id="TGCLbbCgSUUB1Ax1djj9-12" value="Sudah memiki akun ?" style="rhombus;whiteSpace=wrap;html=1;" parent="1" vertex="1">
          <mxGeometry x="305" y="550" width="90" height="80" as="geometry" />
        </mxCell>
        <mxCell id="TGCLbbCgSUUB1Ax1djj9-13" value="" style="edgeStyle=orthogonalEdgeStyle;rounded=0;orthogonalLoop=1;jettySize=auto;html=1;" parent="1" source="TGCLbbCgSUUB1Ax1djj9-14" target="TGCLbbCgSUUB1Ax1djj9-18" edge="1">
          <mxGeometry relative="1" as="geometry" />
        </mxCell>
        <mxCell id="TGCLbbCgSUUB1Ax1djj9-14" value="Sudah memiki akun ?" style="rhombus;whiteSpace=wrap;html=1;" parent="1" vertex="1">
          <mxGeometry x="705" y="550" width="90" height="80" as="geometry" />
        </mxCell>
        <mxCell id="TGCLbbCgSUUB1Ax1djj9-15" value="" style="edgeStyle=orthogonalEdgeStyle;rounded=0;orthogonalLoop=1;jettySize=auto;html=1;" parent="1" source="TGCLbbCgSUUB1Ax1djj9-16" target="TGCLbbCgSUUB1Ax1djj9-27" edge="1">
          <mxGeometry relative="1" as="geometry" />
        </mxCell>
        <mxCell id="TGCLbbCgSUUB1Ax1djj9-16" value="register" style="rounded=1;whiteSpace=wrap;html=1;" parent="1" vertex="1">
          <mxGeometry x="290" y="650" width="120" height="30" as="geometry" />
        </mxCell>
        <mxCell id="TGCLbbCgSUUB1Ax1djj9-17" value="" style="edgeStyle=orthogonalEdgeStyle;rounded=0;orthogonalLoop=1;jettySize=auto;html=1;" parent="1" source="TGCLbbCgSUUB1Ax1djj9-18" target="TGCLbbCgSUUB1Ax1djj9-27" edge="1">
          <mxGeometry relative="1" as="geometry" />
        </mxCell>
        <mxCell id="TGCLbbCgSUUB1Ax1djj9-18" value="register" style="rounded=1;whiteSpace=wrap;html=1;" parent="1" vertex="1">
          <mxGeometry x="690" y="650" width="120" height="30" as="geometry" />
        </mxCell>
        <mxCell id="TGCLbbCgSUUB1Ax1djj9-19" value="masukan username dan password, id card" style="rounded=1;whiteSpace=wrap;html=1;" parent="1" vertex="1">
          <mxGeometry x="290" y="800" width="120" height="30" as="geometry" />
        </mxCell>
        <mxCell id="TGCLbbCgSUUB1Ax1djj9-20" value="masukan username dan password, id card" style="rounded=1;whiteSpace=wrap;html=1;" parent="1" vertex="1">
          <mxGeometry x="690" y="800" width="120" height="30" as="geometry" />
        </mxCell>
        <mxCell id="TGCLbbCgSUUB1Ax1djj9-21" value="" style="endArrow=classic;html=1;rounded=0;exitX=0.5;exitY=1;exitDx=0;exitDy=0;entryX=0.5;entryY=0;entryDx=0;entryDy=0;" parent="1" source="TGCLbbCgSUUB1Ax1djj9-4" target="TGCLbbCgSUUB1Ax1djj9-12" edge="1">
          <mxGeometry width="50" height="50" relative="1" as="geometry">
            <mxPoint x="570" y="840" as="sourcePoint" />
            <mxPoint x="620" y="790" as="targetPoint" />
          </mxGeometry>
        </mxCell>
        <mxCell id="TGCLbbCgSUUB1Ax1djj9-22" value="" style="endArrow=classic;html=1;rounded=0;exitX=0.5;exitY=1;exitDx=0;exitDy=0;" parent="1" source="TGCLbbCgSUUB1Ax1djj9-6" target="TGCLbbCgSUUB1Ax1djj9-14" edge="1">
          <mxGeometry width="50" height="50" relative="1" as="geometry">
            <mxPoint x="570" y="840" as="sourcePoint" />
            <mxPoint x="620" y="790" as="targetPoint" />
          </mxGeometry>
        </mxCell>
        <mxCell id="TGCLbbCgSUUB1Ax1djj9-23" value="" style="endArrow=classic;html=1;rounded=0;exitX=0;exitY=0.5;exitDx=0;exitDy=0;entryX=0;entryY=0.5;entryDx=0;entryDy=0;" parent="1" source="TGCLbbCgSUUB1Ax1djj9-12" target="TGCLbbCgSUUB1Ax1djj9-19" edge="1">
          <mxGeometry width="50" height="50" relative="1" as="geometry">
            <mxPoint x="570" y="840" as="sourcePoint" />
            <mxPoint x="620" y="790" as="targetPoint" />
            <Array as="points">
              <mxPoint x="270" y="590" />
              <mxPoint x="270" y="815" />
            </Array>
          </mxGeometry>
        </mxCell>
        <mxCell id="TGCLbbCgSUUB1Ax1djj9-24" value="" style="endArrow=classic;html=1;rounded=0;exitX=1;exitY=0.5;exitDx=0;exitDy=0;entryX=1;entryY=0.5;entryDx=0;entryDy=0;" parent="1" source="TGCLbbCgSUUB1Ax1djj9-14" target="TGCLbbCgSUUB1Ax1djj9-20" edge="1">
          <mxGeometry width="50" height="50" relative="1" as="geometry">
            <mxPoint x="570" y="840" as="sourcePoint" />
            <mxPoint x="620" y="790" as="targetPoint" />
            <Array as="points">
              <mxPoint x="830" y="590" />
              <mxPoint x="830" y="815" />
            </Array>
          </mxGeometry>
        </mxCell>
        <mxCell id="TGCLbbCgSUUB1Ax1djj9-25" value="" style="endArrow=classic;html=1;rounded=0;exitX=0.5;exitY=1;exitDx=0;exitDy=0;entryX=0.25;entryY=0.5;entryDx=0;entryDy=0;entryPerimeter=0;" parent="1" source="TGCLbbCgSUUB1Ax1djj9-19" target="TGCLbbCgSUUB1Ax1djj9-57" edge="1">
          <mxGeometry width="50" height="50" relative="1" as="geometry">
            <mxPoint x="570" y="840" as="sourcePoint" />
            <mxPoint x="349.9999999999998" y="887" as="targetPoint" />
            <Array as="points">
              <mxPoint x="500" y="830" />
            </Array>
          </mxGeometry>
        </mxCell>
        <mxCell id="TGCLbbCgSUUB1Ax1djj9-26" value="" style="endArrow=classic;html=1;rounded=0;exitX=0.5;exitY=1;exitDx=0;exitDy=0;entryX=0.75;entryY=0.5;entryDx=0;entryDy=0;entryPerimeter=0;" parent="1" source="TGCLbbCgSUUB1Ax1djj9-20" target="TGCLbbCgSUUB1Ax1djj9-57" edge="1">
          <mxGeometry width="50" height="50" relative="1" as="geometry">
            <mxPoint x="570" y="840" as="sourcePoint" />
            <mxPoint x="749.9999999999998" y="882" as="targetPoint" />
            <Array as="points">
              <mxPoint x="600" y="830" />
            </Array>
          </mxGeometry>
        </mxCell>
        <mxCell id="TGCLbbCgSUUB1Ax1djj9-27" value="Menyimpan data register" style="shape=trapezoid;perimeter=trapezoidPerimeter;whiteSpace=wrap;html=1;fixedSize=1;" parent="1" vertex="1">
          <mxGeometry x="490" y="635" width="120" height="60" as="geometry" />
        </mxCell>
        <mxCell id="TGCLbbCgSUUB1Ax1djj9-28" value="&lt;p style=&quot;margin:0px;margin-top:4px;text-align:center;&quot;&gt;&lt;b&gt;users&lt;/b&gt;&lt;/p&gt;&lt;hr size=&quot;1&quot; style=&quot;border-style:solid;&quot;&gt;&lt;div style=&quot;height:2px;&quot;&gt;&lt;/div&gt;" style="verticalAlign=top;align=left;overflow=fill;html=1;whiteSpace=wrap;" parent="1" vertex="1">
          <mxGeometry x="1030" y="380" width="200" height="850" as="geometry" />
        </mxCell>
        <mxCell id="TGCLbbCgSUUB1Ax1djj9-29" value="&lt;p style=&quot;margin:0px;margin-top:4px;text-align:center;&quot;&gt;&lt;b&gt;sistem&lt;/b&gt;&lt;/p&gt;&lt;hr size=&quot;1&quot; style=&quot;border-style:solid;&quot;&gt;&lt;div style=&quot;height:2px;&quot;&gt;&lt;/div&gt;" style="verticalAlign=top;align=left;overflow=fill;html=1;whiteSpace=wrap;" parent="1" vertex="1">
          <mxGeometry x="1230" y="380" width="200" height="850" as="geometry" />
        </mxCell>
        <mxCell id="TGCLbbCgSUUB1Ax1djj9-30" value="&lt;p style=&quot;margin:0px;margin-top:4px;text-align:center;&quot;&gt;&lt;b&gt;admin&lt;/b&gt;&lt;/p&gt;&lt;hr size=&quot;1&quot; style=&quot;border-style:solid;&quot;&gt;&lt;div style=&quot;height:2px;&quot;&gt;&lt;/div&gt;" style="verticalAlign=top;align=left;overflow=fill;html=1;whiteSpace=wrap;" parent="1" vertex="1">
          <mxGeometry x="1430" y="380" width="200" height="850" as="geometry" />
        </mxCell>
        <mxCell id="TGCLbbCgSUUB1Ax1djj9-31" value="&amp;nbsp;penyewaan kamar" style="rounded=1;whiteSpace=wrap;html=1;" parent="1" vertex="1">
          <mxGeometry x="1067.5" y="525" width="120" height="30" as="geometry" />
        </mxCell>
        <mxCell id="TGCLbbCgSUUB1Ax1djj9-32" value="Menampilkan Dashboard" style="rounded=1;whiteSpace=wrap;html=1;" parent="1" vertex="1">
          <mxGeometry x="1260" y="560" width="130" height="30" as="geometry" />
        </mxCell>
        <mxCell id="TGCLbbCgSUUB1Ax1djj9-33" value="Menerima permintaan penyewaan kamar&amp;nbsp;" style="rounded=1;whiteSpace=wrap;html=1;" parent="1" vertex="1">
          <mxGeometry x="1462.5" y="520" width="130" height="40" as="geometry" />
        </mxCell>
        <mxCell id="TGCLbbCgSUUB1Ax1djj9-34" value="" style="endArrow=classic;html=1;rounded=0;exitX=1;exitY=0.5;exitDx=0;exitDy=0;entryX=0;entryY=0.5;entryDx=0;entryDy=0;" parent="1" source="TGCLbbCgSUUB1Ax1djj9-31" target="TGCLbbCgSUUB1Ax1djj9-33" edge="1">
          <mxGeometry width="50" height="50" relative="1" as="geometry">
            <mxPoint x="1265" y="550" as="sourcePoint" />
            <mxPoint x="1315" y="500" as="targetPoint" />
          </mxGeometry>
        </mxCell>
        <mxCell id="TGCLbbCgSUUB1Ax1djj9-35" value="pemberian izin penyewaan kamar" style="rounded=1;whiteSpace=wrap;html=1;" parent="1" vertex="1">
          <mxGeometry x="1462.5" y="620" width="130" height="40" as="geometry" />
        </mxCell>
        <mxCell id="TGCLbbCgSUUB1Ax1djj9-36" value="" style="endArrow=classic;html=1;rounded=0;exitX=1;exitY=0.5;exitDx=0;exitDy=0;entryX=0.5;entryY=0;entryDx=0;entryDy=0;" parent="1" source="TGCLbbCgSUUB1Ax1djj9-32" target="TGCLbbCgSUUB1Ax1djj9-35" edge="1">
          <mxGeometry width="50" height="50" relative="1" as="geometry">
            <mxPoint x="1405" y="660" as="sourcePoint" />
            <mxPoint x="1455" y="610" as="targetPoint" />
            <Array as="points">
              <mxPoint x="1527.5" y="575" />
            </Array>
          </mxGeometry>
        </mxCell>
        <mxCell id="TGCLbbCgSUUB1Ax1djj9-37" value="" style="endArrow=classic;html=1;rounded=0;entryX=0.5;entryY=0;entryDx=0;entryDy=0;exitX=0.5;exitY=1;exitDx=0;exitDy=0;" parent="1" source="TGCLbbCgSUUB1Ax1djj9-33" target="TGCLbbCgSUUB1Ax1djj9-35" edge="1">
          <mxGeometry width="50" height="50" relative="1" as="geometry">
            <mxPoint x="1405" y="660" as="sourcePoint" />
            <mxPoint x="1455" y="610" as="targetPoint" />
          </mxGeometry>
        </mxCell>
        <mxCell id="TGCLbbCgSUUB1Ax1djj9-38" value="" style="endArrow=classic;html=1;rounded=0;exitX=0.5;exitY=0;exitDx=0;exitDy=0;" parent="1" source="TGCLbbCgSUUB1Ax1djj9-44" target="TGCLbbCgSUUB1Ax1djj9-32" edge="1">
          <mxGeometry width="50" height="50" relative="1" as="geometry">
            <mxPoint x="1325" y="670" as="sourcePoint" />
            <mxPoint x="1455" y="760" as="targetPoint" />
          </mxGeometry>
        </mxCell>
        <mxCell id="TGCLbbCgSUUB1Ax1djj9-39" value="" style="edgeStyle=orthogonalEdgeStyle;rounded=0;orthogonalLoop=1;jettySize=auto;html=1;" parent="1" source="TGCLbbCgSUUB1Ax1djj9-40" target="TGCLbbCgSUUB1Ax1djj9-44" edge="1">
          <mxGeometry relative="1" as="geometry" />
        </mxCell>
        <mxCell id="TGCLbbCgSUUB1Ax1djj9-40" value="pemberian izin waktu dan tanggal" style="rounded=1;whiteSpace=wrap;html=1;" parent="1" vertex="1">
          <mxGeometry x="1462.5" y="695" width="130" height="30" as="geometry" />
        </mxCell>
        <mxCell id="TGCLbbCgSUUB1Ax1djj9-41" value="Berhasil&amp;nbsp;" style="text;html=1;align=center;verticalAlign=middle;resizable=0;points=[];autosize=1;strokeColor=none;fillColor=none;" parent="1" vertex="1">
          <mxGeometry x="1335" y="750" width="70" height="30" as="geometry" />
        </mxCell>
        <mxCell id="TGCLbbCgSUUB1Ax1djj9-42" value="Gagal" style="text;html=1;align=center;verticalAlign=middle;resizable=0;points=[];autosize=1;strokeColor=none;fillColor=none;" parent="1" vertex="1">
          <mxGeometry x="1320" y="640" width="60" height="30" as="geometry" />
        </mxCell>
        <mxCell id="TGCLbbCgSUUB1Ax1djj9-43" value="" style="endArrow=classic;html=1;rounded=0;exitX=0.5;exitY=1;exitDx=0;exitDy=0;entryX=0.5;entryY=0;entryDx=0;entryDy=0;" parent="1" source="TGCLbbCgSUUB1Ax1djj9-35" target="TGCLbbCgSUUB1Ax1djj9-40" edge="1">
          <mxGeometry width="50" height="50" relative="1" as="geometry">
            <mxPoint x="1405" y="810" as="sourcePoint" />
            <mxPoint x="1455" y="760" as="targetPoint" />
          </mxGeometry>
        </mxCell>
        <mxCell id="TGCLbbCgSUUB1Ax1djj9-44" value="Menyimpan data peminjaman" style="shape=trapezoid;perimeter=trapezoidPerimeter;whiteSpace=wrap;html=1;fixedSize=1;" parent="1" vertex="1">
          <mxGeometry x="1265" y="680" width="120" height="60" as="geometry" />
        </mxCell>
        <mxCell id="TGCLbbCgSUUB1Ax1djj9-45" value="menerima izin ruangan, tanggal, dan waktu" style="rounded=1;whiteSpace=wrap;html=1;" parent="1" vertex="1">
          <mxGeometry x="1075" y="810" width="120" height="40" as="geometry" />
        </mxCell>
        <mxCell id="TGCLbbCgSUUB1Ax1djj9-46" value="" style="endArrow=classic;html=1;rounded=0;exitX=0.5;exitY=1;exitDx=0;exitDy=0;entryX=1;entryY=0.5;entryDx=0;entryDy=0;" parent="1" source="TGCLbbCgSUUB1Ax1djj9-44" target="TGCLbbCgSUUB1Ax1djj9-45" edge="1">
          <mxGeometry width="50" height="50" relative="1" as="geometry">
            <mxPoint x="1415" y="690" as="sourcePoint" />
            <mxPoint x="1465" y="640" as="targetPoint" />
            <Array as="points">
              <mxPoint x="1325" y="830" />
            </Array>
          </mxGeometry>
        </mxCell>
        <mxCell id="TGCLbbCgSUUB1Ax1djj9-47" value="" style="endArrow=classic;html=1;rounded=0;exitX=0.5;exitY=1;exitDx=0;exitDy=0;entryX=0;entryY=0.5;entryDx=0;entryDy=0;" parent="1" source="TGCLbbCgSUUB1Ax1djj9-44" target="TGCLbbCgSUUB1Ax1djj9-48" edge="1">
          <mxGeometry width="50" height="50" relative="1" as="geometry">
            <mxPoint x="1415" y="810" as="sourcePoint" />
            <mxPoint x="1465" y="760" as="targetPoint" />
            <Array as="points">
              <mxPoint x="1325" y="830" />
            </Array>
          </mxGeometry>
        </mxCell>
        <mxCell id="TGCLbbCgSUUB1Ax1djj9-48" value="menerima pengembalian" style="rounded=1;whiteSpace=wrap;html=1;" parent="1" vertex="1">
          <mxGeometry x="1465" y="810" width="120" height="40" as="geometry" />
        </mxCell>
        <mxCell id="TGCLbbCgSUUB1Ax1djj9-49" style="edgeStyle=orthogonalEdgeStyle;rounded=0;orthogonalLoop=1;jettySize=auto;html=1;exitX=0.5;exitY=1;exitDx=0;exitDy=0;" parent="1" source="TGCLbbCgSUUB1Ax1djj9-28" target="TGCLbbCgSUUB1Ax1djj9-28" edge="1">
          <mxGeometry relative="1" as="geometry" />
        </mxCell>
        <mxCell id="TGCLbbCgSUUB1Ax1djj9-50" value="" style="shape=line;html=1;strokeWidth=6;strokeColor=#ff0000;" parent="1" vertex="1">
          <mxGeometry x="1230" y="980" width="200" height="10" as="geometry" />
        </mxCell>
        <mxCell id="TGCLbbCgSUUB1Ax1djj9-51" value="" style="edgeStyle=orthogonalEdgeStyle;html=1;verticalAlign=bottom;endArrow=open;endSize=8;strokeColor=#ff0000;rounded=0;exitX=0.499;exitY=0.443;exitDx=0;exitDy=0;exitPerimeter=0;entryX=0.5;entryY=0;entryDx=0;entryDy=0;" parent="1" source="TGCLbbCgSUUB1Ax1djj9-50" target="TGCLbbCgSUUB1Ax1djj9-52" edge="1">
          <mxGeometry relative="1" as="geometry">
            <mxPoint x="1340" y="1060" as="targetPoint" />
          </mxGeometry>
        </mxCell>
        <mxCell id="TGCLbbCgSUUB1Ax1djj9-52" value="" style="ellipse;html=1;shape=endState;fillColor=#000000;strokeColor=#ff0000;" parent="1" vertex="1">
          <mxGeometry x="1315" y="1060" width="30" height="30" as="geometry" />
        </mxCell>
        <mxCell id="TGCLbbCgSUUB1Ax1djj9-53" value="" style="endArrow=classic;html=1;rounded=0;exitX=0.5;exitY=1;exitDx=0;exitDy=0;entryX=0.25;entryY=0.5;entryDx=0;entryDy=0;entryPerimeter=0;" parent="1" source="TGCLbbCgSUUB1Ax1djj9-45" target="TGCLbbCgSUUB1Ax1djj9-50" edge="1">
          <mxGeometry width="50" height="50" relative="1" as="geometry">
            <mxPoint x="1310" y="1050" as="sourcePoint" />
            <mxPoint x="1360" y="1000" as="targetPoint" />
            <Array as="points">
              <mxPoint x="1280" y="850" />
            </Array>
          </mxGeometry>
        </mxCell>
        <mxCell id="TGCLbbCgSUUB1Ax1djj9-54" value="" style="endArrow=classic;html=1;rounded=0;exitX=0.5;exitY=1;exitDx=0;exitDy=0;entryX=0.75;entryY=0.5;entryDx=0;entryDy=0;entryPerimeter=0;" parent="1" source="TGCLbbCgSUUB1Ax1djj9-48" target="TGCLbbCgSUUB1Ax1djj9-50" edge="1">
          <mxGeometry width="50" height="50" relative="1" as="geometry">
            <mxPoint x="1310" y="1050" as="sourcePoint" />
            <mxPoint x="1360" y="1000" as="targetPoint" />
            <Array as="points">
              <mxPoint x="1380" y="850" />
            </Array>
          </mxGeometry>
        </mxCell>
        <mxCell id="TGCLbbCgSUUB1Ax1djj9-55" value="" style="ellipse;html=1;shape=startState;fillColor=#000000;strokeColor=#ff0000;" parent="1" vertex="1">
          <mxGeometry x="1112.5" y="435" width="30" height="30" as="geometry" />
        </mxCell>
        <mxCell id="TGCLbbCgSUUB1Ax1djj9-56" value="" style="edgeStyle=orthogonalEdgeStyle;html=1;verticalAlign=bottom;endArrow=open;endSize=8;strokeColor=#ff0000;rounded=0;" parent="1" source="TGCLbbCgSUUB1Ax1djj9-55" edge="1">
          <mxGeometry relative="1" as="geometry">
            <mxPoint x="1127.5" y="525" as="targetPoint" />
          </mxGeometry>
        </mxCell>
        <mxCell id="TGCLbbCgSUUB1Ax1djj9-57" value="" style="shape=line;html=1;strokeWidth=6;strokeColor=#ff0000;" parent="1" vertex="1">
          <mxGeometry x="450" y="910" width="200" height="10" as="geometry" />
        </mxCell>
        <mxCell id="TGCLbbCgSUUB1Ax1djj9-58" value="" style="edgeStyle=orthogonalEdgeStyle;html=1;verticalAlign=bottom;endArrow=open;endSize=8;strokeColor=#ff0000;rounded=0;entryX=0.5;entryY=0;entryDx=0;entryDy=0;" parent="1" source="TGCLbbCgSUUB1Ax1djj9-57" target="TGCLbbCgSUUB1Ax1djj9-59" edge="1">
          <mxGeometry relative="1" as="geometry">
            <mxPoint x="780" y="810" as="targetPoint" />
          </mxGeometry>
        </mxCell>
        <mxCell id="TGCLbbCgSUUB1Ax1djj9-59" value="" style="ellipse;html=1;shape=endState;fillColor=#000000;strokeColor=#ff0000;" parent="1" vertex="1">
          <mxGeometry x="535" y="980" width="30" height="30" as="geometry" />
        </mxCell>
        <mxCell id="TGCLbbCgSUUB1Ax1djj9-60" value="" style="endArrow=classic;html=1;rounded=0;exitX=0.5;exitY=1;exitDx=0;exitDy=0;entryX=0.5;entryY=0;entryDx=0;entryDy=0;" parent="1" source="TGCLbbCgSUUB1Ax1djj9-18" target="TGCLbbCgSUUB1Ax1djj9-20" edge="1">
          <mxGeometry width="50" height="50" relative="1" as="geometry">
            <mxPoint x="760" y="800" as="sourcePoint" />
            <mxPoint x="810" y="750" as="targetPoint" />
          </mxGeometry>
        </mxCell>
        <mxCell id="TGCLbbCgSUUB1Ax1djj9-61" value="" style="endArrow=classic;html=1;rounded=0;exitX=0.5;exitY=1;exitDx=0;exitDy=0;entryX=0.5;entryY=0;entryDx=0;entryDy=0;" parent="1" source="TGCLbbCgSUUB1Ax1djj9-16" target="TGCLbbCgSUUB1Ax1djj9-19" edge="1">
          <mxGeometry width="50" height="50" relative="1" as="geometry">
            <mxPoint x="760" y="800" as="sourcePoint" />
            <mxPoint x="810" y="750" as="targetPoint" />
          </mxGeometry>
        </mxCell>
        <mxCell id="TGCLbbCgSUUB1Ax1djj9-62" value="" style="ellipse;html=1;shape=startState;fillColor=#000000;strokeColor=#ff0000;" parent="1" vertex="1">
          <mxGeometry x="280" y="1750" width="30" height="30" as="geometry" />
        </mxCell>
        <mxCell id="TGCLbbCgSUUB1Ax1djj9-63" value="" style="edgeStyle=orthogonalEdgeStyle;html=1;verticalAlign=bottom;endArrow=open;endSize=8;strokeColor=#ff0000;rounded=0;" parent="1" source="TGCLbbCgSUUB1Ax1djj9-62" edge="1">
          <mxGeometry relative="1" as="geometry">
            <mxPoint x="295" y="1840" as="targetPoint" />
          </mxGeometry>
        </mxCell>
        <mxCell id="TGCLbbCgSUUB1Ax1djj9-64" value="&lt;p style=&quot;margin:0px;margin-top:4px;text-align:center;&quot;&gt;&lt;b&gt;users&lt;/b&gt;&lt;/p&gt;&lt;hr size=&quot;1&quot; style=&quot;border-style:solid;&quot;&gt;&lt;div style=&quot;height:2px;&quot;&gt;&lt;/div&gt;" style="verticalAlign=top;align=left;overflow=fill;html=1;whiteSpace=wrap;" parent="1" vertex="1">
          <mxGeometry x="1027.5" y="1340" width="200" height="850" as="geometry" />
        </mxCell>
        <mxCell id="TGCLbbCgSUUB1Ax1djj9-65" value="&lt;p style=&quot;margin:0px;margin-top:4px;text-align:center;&quot;&gt;&lt;b&gt;sistem&lt;/b&gt;&lt;/p&gt;&lt;hr size=&quot;1&quot; style=&quot;border-style:solid;&quot;&gt;&lt;div style=&quot;height:2px;&quot;&gt;&lt;/div&gt;" style="verticalAlign=top;align=left;overflow=fill;html=1;whiteSpace=wrap;" parent="1" vertex="1">
          <mxGeometry x="1230" y="1340" width="200" height="850" as="geometry" />
        </mxCell>
        <mxCell id="TGCLbbCgSUUB1Ax1djj9-66" value="&lt;p style=&quot;margin:0px;margin-top:4px;text-align:center;&quot;&gt;&lt;b&gt;admin&lt;/b&gt;&lt;/p&gt;&lt;hr size=&quot;1&quot; style=&quot;border-style:solid;&quot;&gt;&lt;div style=&quot;height:2px;&quot;&gt;&lt;/div&gt;" style="verticalAlign=top;align=left;overflow=fill;html=1;whiteSpace=wrap;" parent="1" vertex="1">
          <mxGeometry x="1430" y="1340" width="200" height="850" as="geometry" />
        </mxCell>
        <mxCell id="TGCLbbCgSUUB1Ax1djj9-67" value="" style="edgeStyle=orthogonalEdgeStyle;rounded=0;orthogonalLoop=1;jettySize=auto;html=1;" parent="1" source="TGCLbbCgSUUB1Ax1djj9-68" target="TGCLbbCgSUUB1Ax1djj9-69" edge="1">
          <mxGeometry relative="1" as="geometry" />
        </mxCell>
        <mxCell id="TGCLbbCgSUUB1Ax1djj9-68" value="waktu selesai" style="rounded=1;whiteSpace=wrap;html=1;" parent="1" vertex="1">
          <mxGeometry x="1080" y="1468" width="120" height="40" as="geometry" />
        </mxCell>
        <mxCell id="TGCLbbCgSUUB1Ax1djj9-69" value="Pengembalikan kamar/villa" style="rounded=1;whiteSpace=wrap;html=1;" parent="1" vertex="1">
          <mxGeometry x="1080" y="1538" width="120" height="40" as="geometry" />
        </mxCell>
        <mxCell id="TGCLbbCgSUUB1Ax1djj9-70" value="menerima pengembalian ruangan" style="rounded=1;whiteSpace=wrap;html=1;" parent="1" vertex="1">
          <mxGeometry x="1472.5" y="1538" width="120" height="40" as="geometry" />
        </mxCell>
        <mxCell id="TGCLbbCgSUUB1Ax1djj9-71" value="" style="ellipse;html=1;shape=startState;fillColor=#000000;strokeColor=#ff0000;" parent="1" vertex="1">
          <mxGeometry x="1125" y="1378" width="30" height="30" as="geometry" />
        </mxCell>
        <mxCell id="TGCLbbCgSUUB1Ax1djj9-72" value="" style="edgeStyle=orthogonalEdgeStyle;html=1;verticalAlign=bottom;endArrow=open;endSize=8;strokeColor=#ff0000;rounded=0;" parent="1" source="TGCLbbCgSUUB1Ax1djj9-71" edge="1">
          <mxGeometry relative="1" as="geometry">
            <mxPoint x="1140" y="1468" as="targetPoint" />
          </mxGeometry>
        </mxCell>
        <mxCell id="TGCLbbCgSUUB1Ax1djj9-73" value="" style="shape=line;html=1;strokeWidth=6;strokeColor=#ff0000;" parent="1" vertex="1">
          <mxGeometry x="1230" y="1940" width="200" height="10" as="geometry" />
        </mxCell>
        <mxCell id="TGCLbbCgSUUB1Ax1djj9-74" value="" style="edgeStyle=orthogonalEdgeStyle;html=1;verticalAlign=bottom;endArrow=open;endSize=8;strokeColor=#ff0000;rounded=0;entryX=0.5;entryY=0;entryDx=0;entryDy=0;" parent="1" source="TGCLbbCgSUUB1Ax1djj9-73" target="TGCLbbCgSUUB1Ax1djj9-75" edge="1">
          <mxGeometry relative="1" as="geometry">
            <mxPoint x="1390" y="1920" as="targetPoint" />
          </mxGeometry>
        </mxCell>
        <mxCell id="TGCLbbCgSUUB1Ax1djj9-75" value="" style="ellipse;html=1;shape=endState;fillColor=#000000;strokeColor=#ff0000;" parent="1" vertex="1">
          <mxGeometry x="1315" y="1990" width="30" height="30" as="geometry" />
        </mxCell>
        <mxCell id="TGCLbbCgSUUB1Ax1djj9-76" value="" style="edgeStyle=orthogonalEdgeStyle;rounded=0;orthogonalLoop=1;jettySize=auto;html=1;" parent="1" source="TGCLbbCgSUUB1Ax1djj9-77" target="TGCLbbCgSUUB1Ax1djj9-79" edge="1">
          <mxGeometry relative="1" as="geometry" />
        </mxCell>
        <mxCell id="TGCLbbCgSUUB1Ax1djj9-77" value="menyimpan data pengembalian" style="shape=trapezoid;perimeter=trapezoidPerimeter;whiteSpace=wrap;html=1;fixedSize=1;" parent="1" vertex="1">
          <mxGeometry x="1270" y="1735" width="120" height="60" as="geometry" />
        </mxCell>
        <mxCell id="TGCLbbCgSUUB1Ax1djj9-78" value="" style="endArrow=classic;html=1;rounded=0;exitX=0.5;exitY=1;exitDx=0;exitDy=0;entryX=0.25;entryY=0.5;entryDx=0;entryDy=0;entryPerimeter=0;" parent="1" source="TGCLbbCgSUUB1Ax1djj9-69" target="TGCLbbCgSUUB1Ax1djj9-73" edge="1">
          <mxGeometry width="50" height="50" relative="1" as="geometry">
            <mxPoint x="1360" y="1640" as="sourcePoint" />
            <mxPoint x="1410" y="1590" as="targetPoint" />
            <Array as="points">
              <mxPoint x="1140" y="1910" />
            </Array>
          </mxGeometry>
        </mxCell>
        <mxCell id="TGCLbbCgSUUB1Ax1djj9-79" value="menampilkan di dashboard" style="rounded=1;whiteSpace=wrap;html=1;" parent="1" vertex="1">
          <mxGeometry x="1270" y="1630" width="120" height="40" as="geometry" />
        </mxCell>
        <mxCell id="TGCLbbCgSUUB1Ax1djj9-80" value="" style="endArrow=classic;html=1;rounded=0;exitX=1;exitY=0.5;exitDx=0;exitDy=0;entryX=0;entryY=0.5;entryDx=0;entryDy=0;" parent="1" source="TGCLbbCgSUUB1Ax1djj9-69" target="TGCLbbCgSUUB1Ax1djj9-70" edge="1">
          <mxGeometry width="50" height="50" relative="1" as="geometry">
            <mxPoint x="1360" y="1500" as="sourcePoint" />
            <mxPoint x="1410" y="1450" as="targetPoint" />
          </mxGeometry>
        </mxCell>
        <mxCell id="TGCLbbCgSUUB1Ax1djj9-81" value="" style="endArrow=classic;html=1;rounded=0;exitX=0.5;exitY=1;exitDx=0;exitDy=0;entryX=1;entryY=0.5;entryDx=0;entryDy=0;" parent="1" source="TGCLbbCgSUUB1Ax1djj9-70" target="TGCLbbCgSUUB1Ax1djj9-77" edge="1">
          <mxGeometry width="50" height="50" relative="1" as="geometry">
            <mxPoint x="1360" y="1790" as="sourcePoint" />
            <mxPoint x="1410" y="1740" as="targetPoint" />
            <Array as="points">
              <mxPoint x="1530" y="1765" />
            </Array>
          </mxGeometry>
        </mxCell>
        <mxCell id="TGCLbbCgSUUB1Ax1djj9-82" value="" style="endArrow=classic;html=1;rounded=0;exitX=0.5;exitY=0;exitDx=0;exitDy=0;entryX=0;entryY=0.5;entryDx=0;entryDy=0;" parent="1" source="TGCLbbCgSUUB1Ax1djj9-79" target="TGCLbbCgSUUB1Ax1djj9-70" edge="1">
          <mxGeometry width="50" height="50" relative="1" as="geometry">
            <mxPoint x="1360" y="1790" as="sourcePoint" />
            <mxPoint x="1330" y="1560" as="targetPoint" />
            <Array as="points">
              <mxPoint x="1330" y="1558" />
            </Array>
          </mxGeometry>
        </mxCell>
        <mxCell id="TGCLbbCgSUUB1Ax1djj9-83" value="" style="endArrow=classic;html=1;rounded=0;entryX=0.75;entryY=0.5;entryDx=0;entryDy=0;entryPerimeter=0;" parent="1" target="TGCLbbCgSUUB1Ax1djj9-73" edge="1">
          <mxGeometry width="50" height="50" relative="1" as="geometry">
            <mxPoint x="1530" y="1590" as="sourcePoint" />
            <mxPoint x="1410" y="1740" as="targetPoint" />
            <Array as="points">
              <mxPoint x="1530" y="1910" />
            </Array>
          </mxGeometry>
        </mxCell>
        <mxCell id="TGCLbbCgSUUB1Ax1djj9-85" value="Gagal" style="text;html=1;align=center;verticalAlign=middle;resizable=0;points=[];autosize=1;strokeColor=none;fillColor=none;" parent="1" vertex="1">
          <mxGeometry x="1320" y="1690" width="60" height="30" as="geometry" />
        </mxCell>
        <mxCell id="TGCLbbCgSUUB1Ax1djj9-86" value="Sudah" style="text;html=1;align=center;verticalAlign=middle;resizable=0;points=[];autosize=1;strokeColor=none;fillColor=none;" parent="1" vertex="1">
          <mxGeometry x="260" y="560" width="60" height="30" as="geometry" />
        </mxCell>
        <mxCell id="TGCLbbCgSUUB1Ax1djj9-87" value="Belum" style="text;html=1;align=center;verticalAlign=middle;resizable=0;points=[];autosize=1;strokeColor=none;fillColor=none;" parent="1" vertex="1">
          <mxGeometry x="350" y="620" width="60" height="30" as="geometry" />
        </mxCell>
        <mxCell id="TGCLbbCgSUUB1Ax1djj9-88" value="Sudah" style="text;html=1;align=center;verticalAlign=middle;resizable=0;points=[];autosize=1;strokeColor=none;fillColor=none;" parent="1" vertex="1">
          <mxGeometry x="780" y="560" width="60" height="30" as="geometry" />
        </mxCell>
        <mxCell id="TGCLbbCgSUUB1Ax1djj9-89" value="Belum" style="text;html=1;align=center;verticalAlign=middle;resizable=0;points=[];autosize=1;strokeColor=none;fillColor=none;" parent="1" vertex="1">
          <mxGeometry x="690" y="620" width="60" height="30" as="geometry" />
        </mxCell>
        <mxCell id="TGCLbbCgSUUB1Ax1djj9-90" value="&lt;p style=&quot;margin:0px;margin-top:4px;text-align:center;&quot;&gt;&lt;b&gt;Users&lt;/b&gt;&lt;/p&gt;&lt;hr size=&quot;1&quot; style=&quot;border-style:solid;&quot;&gt;&lt;div style=&quot;height:2px;&quot;&gt;&lt;/div&gt;" style="verticalAlign=top;align=left;overflow=fill;html=1;whiteSpace=wrap;" parent="1" vertex="1">
          <mxGeometry x="1720" y="955" width="190" height="445" as="geometry" />
        </mxCell>
        <mxCell id="TGCLbbCgSUUB1Ax1djj9-91" value="&lt;p style=&quot;margin:0px;margin-top:4px;text-align:center;&quot;&gt;&lt;b&gt;Sistem&lt;/b&gt;&lt;/p&gt;&lt;hr size=&quot;1&quot; style=&quot;border-style:solid;&quot;&gt;&lt;div style=&quot;height:2px;&quot;&gt;&lt;/div&gt;" style="verticalAlign=top;align=left;overflow=fill;html=1;whiteSpace=wrap;" parent="1" vertex="1">
          <mxGeometry x="1910" y="955" width="180" height="445" as="geometry" />
        </mxCell>
        <mxCell id="TGCLbbCgSUUB1Ax1djj9-92" value="menampilkan rekap peminjaman dan pemngembalian" style="rounded=1;whiteSpace=wrap;html=1;" parent="1" vertex="1">
          <mxGeometry x="1940" y="1067" width="120" height="40" as="geometry" />
        </mxCell>
        <mxCell id="TGCLbbCgSUUB1Ax1djj9-93" value="" style="ellipse;html=1;shape=startState;fillColor=#000000;strokeColor=#ff0000;" parent="1" vertex="1">
          <mxGeometry x="1805" y="977" width="30" height="30" as="geometry" />
        </mxCell>
        <mxCell id="TGCLbbCgSUUB1Ax1djj9-94" value="" style="edgeStyle=orthogonalEdgeStyle;html=1;verticalAlign=bottom;endArrow=open;endSize=8;strokeColor=#ff0000;rounded=0;" parent="1" source="TGCLbbCgSUUB1Ax1djj9-93" edge="1">
          <mxGeometry relative="1" as="geometry">
            <mxPoint x="1820" y="1067" as="targetPoint" />
          </mxGeometry>
        </mxCell>
        <mxCell id="TGCLbbCgSUUB1Ax1djj9-95" value="tampilan peminjaman dan pengembalian&amp;nbsp;" style="rounded=1;whiteSpace=wrap;html=1;" parent="1" vertex="1">
          <mxGeometry x="1755" y="1067" width="120" height="40" as="geometry" />
        </mxCell>
        <mxCell id="TGCLbbCgSUUB1Ax1djj9-96" value="" style="endArrow=classic;html=1;rounded=0;exitX=0;exitY=0.5;exitDx=0;exitDy=0;entryX=1;entryY=0.5;entryDx=0;entryDy=0;" parent="1" source="TGCLbbCgSUUB1Ax1djj9-92" target="TGCLbbCgSUUB1Ax1djj9-95" edge="1">
          <mxGeometry width="50" height="50" relative="1" as="geometry">
            <mxPoint x="1870" y="1280" as="sourcePoint" />
            <mxPoint x="1920" y="1230" as="targetPoint" />
          </mxGeometry>
        </mxCell>
        <mxCell id="TGCLbbCgSUUB1Ax1djj9-97" value="" style="shape=line;html=1;strokeWidth=6;strokeColor=#ff0000;" parent="1" vertex="1">
          <mxGeometry x="1735" y="1177" width="160" height="10" as="geometry" />
        </mxCell>
        <mxCell id="TGCLbbCgSUUB1Ax1djj9-98" value="" style="edgeStyle=orthogonalEdgeStyle;html=1;verticalAlign=bottom;endArrow=open;endSize=8;strokeColor=#ff0000;rounded=0;entryX=0.5;entryY=0;entryDx=0;entryDy=0;" parent="1" source="TGCLbbCgSUUB1Ax1djj9-97" target="TGCLbbCgSUUB1Ax1djj9-99" edge="1">
          <mxGeometry relative="1" as="geometry">
            <mxPoint x="1890" y="1270" as="targetPoint" />
          </mxGeometry>
        </mxCell>
        <mxCell id="TGCLbbCgSUUB1Ax1djj9-99" value="" style="ellipse;html=1;shape=endState;fillColor=#000000;strokeColor=#ff0000;" parent="1" vertex="1">
          <mxGeometry x="1800" y="1217" width="30" height="30" as="geometry" />
        </mxCell>
        <mxCell id="TGCLbbCgSUUB1Ax1djj9-100" value="" style="endArrow=classic;html=1;rounded=0;exitX=0.5;exitY=1;exitDx=0;exitDy=0;entryX=0.505;entryY=0.55;entryDx=0;entryDy=0;entryPerimeter=0;" parent="1" source="TGCLbbCgSUUB1Ax1djj9-95" target="TGCLbbCgSUUB1Ax1djj9-97" edge="1">
          <mxGeometry width="50" height="50" relative="1" as="geometry">
            <mxPoint x="1870" y="1260" as="sourcePoint" />
            <mxPoint x="1920" y="1210" as="targetPoint" />
          </mxGeometry>
        </mxCell>
        <mxCell id="TGCLbbCgSUUB1Ax1djj9-101" value="&lt;p style=&quot;margin:0px;margin-top:4px;text-align:center;&quot;&gt;&lt;b&gt;sistem&lt;/b&gt;&lt;/p&gt;&lt;hr size=&quot;1&quot; style=&quot;border-style:solid;&quot;&gt;&lt;div style=&quot;height:2px;&quot;&gt;&lt;/div&gt;" style="verticalAlign=top;align=left;overflow=fill;html=1;whiteSpace=wrap;" parent="1" vertex="1">
          <mxGeometry x="790" y="2500" width="320" height="850" as="geometry" />
        </mxCell>
        <mxCell id="TGCLbbCgSUUB1Ax1djj9-102" value="&lt;p style=&quot;margin:0px;margin-top:4px;text-align:center;&quot;&gt;&lt;b&gt;admin&lt;/b&gt;&lt;/p&gt;&lt;hr size=&quot;1&quot; style=&quot;border-style:solid;&quot;&gt;&lt;div style=&quot;height:2px;&quot;&gt;&lt;/div&gt;" style="verticalAlign=top;align=left;overflow=fill;html=1;whiteSpace=wrap;" parent="1" vertex="1">
          <mxGeometry x="590" y="2500" width="200" height="850" as="geometry" />
        </mxCell>
        <mxCell id="TGCLbbCgSUUB1Ax1djj9-103" value="" style="ellipse;html=1;shape=startState;fillColor=#000000;strokeColor=#ff0000;" parent="1" vertex="1">
          <mxGeometry x="985" y="2540" width="30" height="30" as="geometry" />
        </mxCell>
        <mxCell id="TGCLbbCgSUUB1Ax1djj9-104" value="" style="edgeStyle=orthogonalEdgeStyle;html=1;verticalAlign=bottom;endArrow=open;endSize=8;strokeColor=#ff0000;rounded=0;entryX=0.5;entryY=0;entryDx=0;entryDy=0;exitX=0.5;exitY=1;exitDx=0;exitDy=0;" parent="1" source="TGCLbbCgSUUB1Ax1djj9-103" target="TGCLbbCgSUUB1Ax1djj9-105" edge="1">
          <mxGeometry relative="1" as="geometry">
            <mxPoint x="1248" y="2620" as="targetPoint" />
            <mxPoint x="1000" y="2570.0000000000005" as="sourcePoint" />
          </mxGeometry>
        </mxCell>
        <mxCell id="TGCLbbCgSUUB1Ax1djj9-105" value="menampilkan data" style="rounded=1;whiteSpace=wrap;html=1;" parent="1" vertex="1">
          <mxGeometry x="940" y="2640" width="120" height="30" as="geometry" />
        </mxCell>
        <mxCell id="TGCLbbCgSUUB1Ax1djj9-106" value="" style="edgeStyle=orthogonalEdgeStyle;rounded=0;orthogonalLoop=1;jettySize=auto;html=1;" parent="1" source="TGCLbbCgSUUB1Ax1djj9-108" target="TGCLbbCgSUUB1Ax1djj9-113" edge="1">
          <mxGeometry relative="1" as="geometry" />
        </mxCell>
        <mxCell id="TGCLbbCgSUUB1Ax1djj9-107" value="" style="edgeStyle=orthogonalEdgeStyle;rounded=0;orthogonalLoop=1;jettySize=auto;html=1;" parent="1" source="TGCLbbCgSUUB1Ax1djj9-108" target="TGCLbbCgSUUB1Ax1djj9-139" edge="1">
          <mxGeometry relative="1" as="geometry" />
        </mxCell>
        <mxCell id="TGCLbbCgSUUB1Ax1djj9-108" value="create" style="rhombus;whiteSpace=wrap;html=1;" parent="1" vertex="1">
          <mxGeometry x="960" y="2700" width="80" height="80" as="geometry" />
        </mxCell>
        <mxCell id="TGCLbbCgSUUB1Ax1djj9-109" value="" style="edgeStyle=orthogonalEdgeStyle;rounded=0;orthogonalLoop=1;jettySize=auto;html=1;" parent="1" source="TGCLbbCgSUUB1Ax1djj9-110" target="TGCLbbCgSUUB1Ax1djj9-137" edge="1">
          <mxGeometry relative="1" as="geometry" />
        </mxCell>
        <mxCell id="TGCLbbCgSUUB1Ax1djj9-110" value="masih ?" style="rhombus;whiteSpace=wrap;html=1;" parent="1" vertex="1">
          <mxGeometry x="960" y="3100" width="80" height="80" as="geometry" />
        </mxCell>
        <mxCell id="TGCLbbCgSUUB1Ax1djj9-111" value="" style="edgeStyle=orthogonalEdgeStyle;rounded=0;orthogonalLoop=1;jettySize=auto;html=1;" parent="1" source="TGCLbbCgSUUB1Ax1djj9-113" target="TGCLbbCgSUUB1Ax1djj9-114" edge="1">
          <mxGeometry relative="1" as="geometry" />
        </mxCell>
        <mxCell id="TGCLbbCgSUUB1Ax1djj9-112" value="" style="edgeStyle=orthogonalEdgeStyle;rounded=0;orthogonalLoop=1;jettySize=auto;html=1;" parent="1" source="TGCLbbCgSUUB1Ax1djj9-113" target="TGCLbbCgSUUB1Ax1djj9-141" edge="1">
          <mxGeometry relative="1" as="geometry" />
        </mxCell>
        <mxCell id="TGCLbbCgSUUB1Ax1djj9-113" value="edit" style="rhombus;whiteSpace=wrap;html=1;" parent="1" vertex="1">
          <mxGeometry x="960" y="2800" width="80" height="80" as="geometry" />
        </mxCell>
        <mxCell id="TGCLbbCgSUUB1Ax1djj9-114" value="delete" style="rhombus;whiteSpace=wrap;html=1;" parent="1" vertex="1">
          <mxGeometry x="960" y="2900" width="80" height="80" as="geometry" />
        </mxCell>
        <mxCell id="TGCLbbCgSUUB1Ax1djj9-115" value="&lt;p style=&quot;margin:0px;margin-top:4px;text-align:center;&quot;&gt;&lt;b&gt;users&lt;/b&gt;&lt;/p&gt;&lt;hr size=&quot;1&quot; style=&quot;border-style:solid;&quot;&gt;&lt;div style=&quot;height:2px;&quot;&gt;&lt;/div&gt;" style="verticalAlign=top;align=left;overflow=fill;html=1;whiteSpace=wrap;" parent="1" vertex="1">
          <mxGeometry x="260" y="1408" width="200" height="750" as="geometry" />
        </mxCell>
        <mxCell id="TGCLbbCgSUUB1Ax1djj9-116" value="&lt;p style=&quot;margin:0px;margin-top:4px;text-align:center;&quot;&gt;&lt;b&gt;users&lt;/b&gt;&lt;/p&gt;&lt;hr size=&quot;1&quot; style=&quot;border-style:solid;&quot;&gt;&lt;div style=&quot;height:2px;&quot;&gt;&lt;/div&gt;" style="verticalAlign=top;align=left;overflow=fill;html=1;whiteSpace=wrap;" parent="1" vertex="1">
          <mxGeometry x="460" y="1408" width="200" height="750" as="geometry" />
        </mxCell>
        <mxCell id="TGCLbbCgSUUB1Ax1djj9-117" value="&lt;p style=&quot;margin:0px;margin-top:4px;text-align:center;&quot;&gt;&lt;b&gt;users&lt;/b&gt;&lt;/p&gt;&lt;hr size=&quot;1&quot; style=&quot;border-style:solid;&quot;&gt;&lt;div style=&quot;height:2px;&quot;&gt;&lt;/div&gt;" style="verticalAlign=top;align=left;overflow=fill;html=1;whiteSpace=wrap;" parent="1" vertex="1">
          <mxGeometry x="660" y="1408" width="200" height="750" as="geometry" />
        </mxCell>
        <mxCell id="TGCLbbCgSUUB1Ax1djj9-118" value="" style="shape=line;html=1;strokeWidth=6;strokeColor=#ff0000;" parent="1" vertex="1">
          <mxGeometry x="460" y="1690" width="200" height="10" as="geometry" />
        </mxCell>
        <mxCell id="TGCLbbCgSUUB1Ax1djj9-119" value="" style="edgeStyle=orthogonalEdgeStyle;html=1;verticalAlign=bottom;endArrow=open;endSize=8;strokeColor=#ff0000;rounded=0;entryX=0.5;entryY=0;entryDx=0;entryDy=0;" parent="1" source="TGCLbbCgSUUB1Ax1djj9-118" target="TGCLbbCgSUUB1Ax1djj9-120" edge="1">
          <mxGeometry relative="1" as="geometry">
            <mxPoint x="562.5" y="1400" as="targetPoint" />
          </mxGeometry>
        </mxCell>
        <mxCell id="TGCLbbCgSUUB1Ax1djj9-120" value="" style="ellipse;html=1;shape=endState;fillColor=#000000;strokeColor=#ff0000;" parent="1" vertex="1">
          <mxGeometry x="545" y="1750" width="30" height="30" as="geometry" />
        </mxCell>
        <mxCell id="TGCLbbCgSUUB1Ax1djj9-121" value="Logout" style="rounded=1;whiteSpace=wrap;html=1;" parent="1" vertex="1">
          <mxGeometry x="300" y="1610" width="120" height="30" as="geometry" />
        </mxCell>
        <mxCell id="TGCLbbCgSUUB1Ax1djj9-122" value="Logout" style="rounded=1;whiteSpace=wrap;html=1;" parent="1" vertex="1">
          <mxGeometry x="700" y="1610" width="120" height="30" as="geometry" />
        </mxCell>
        <mxCell id="TGCLbbCgSUUB1Ax1djj9-123" value="" style="endArrow=classic;html=1;rounded=0;exitX=1;exitY=0.5;exitDx=0;exitDy=0;entryX=0.25;entryY=0.5;entryDx=0;entryDy=0;entryPerimeter=0;" parent="1" source="TGCLbbCgSUUB1Ax1djj9-121" target="TGCLbbCgSUUB1Ax1djj9-118" edge="1">
          <mxGeometry width="50" height="50" relative="1" as="geometry">
            <mxPoint x="582.5" y="1518" as="sourcePoint" />
            <mxPoint x="632.5" y="1468" as="targetPoint" />
            <Array as="points">
              <mxPoint x="510.5" y="1625" />
            </Array>
          </mxGeometry>
        </mxCell>
        <mxCell id="TGCLbbCgSUUB1Ax1djj9-124" value="" style="endArrow=classic;html=1;rounded=0;exitX=0;exitY=0.5;exitDx=0;exitDy=0;entryX=0.794;entryY=0.324;entryDx=0;entryDy=0;entryPerimeter=0;" parent="1" source="TGCLbbCgSUUB1Ax1djj9-122" target="TGCLbbCgSUUB1Ax1djj9-118" edge="1">
          <mxGeometry width="50" height="50" relative="1" as="geometry">
            <mxPoint x="582.5" y="1518" as="sourcePoint" />
            <mxPoint x="632.5" y="1468" as="targetPoint" />
            <Array as="points">
              <mxPoint x="618.5" y="1625" />
            </Array>
          </mxGeometry>
        </mxCell>
        <mxCell id="TGCLbbCgSUUB1Ax1djj9-125" value="" style="ellipse;html=1;shape=startState;fillColor=#000000;strokeColor=#ff0000;" parent="1" vertex="1">
          <mxGeometry x="345" y="1450" width="30" height="30" as="geometry" />
        </mxCell>
        <mxCell id="TGCLbbCgSUUB1Ax1djj9-126" value="" style="edgeStyle=orthogonalEdgeStyle;html=1;verticalAlign=bottom;endArrow=open;endSize=8;strokeColor=#ff0000;rounded=0;entryX=0.5;entryY=0;entryDx=0;entryDy=0;" parent="1" source="TGCLbbCgSUUB1Ax1djj9-125" target="TGCLbbCgSUUB1Ax1djj9-121" edge="1">
          <mxGeometry relative="1" as="geometry">
            <mxPoint x="805" y="1840" as="targetPoint" />
          </mxGeometry>
        </mxCell>
        <mxCell id="TGCLbbCgSUUB1Ax1djj9-127" value="" style="endArrow=classic;html=1;rounded=0;exitX=0.5;exitY=1;exitDx=0;exitDy=0;entryX=0.5;entryY=0;entryDx=0;entryDy=0;" parent="1" source="TGCLbbCgSUUB1Ax1djj9-105" target="TGCLbbCgSUUB1Ax1djj9-108" edge="1">
          <mxGeometry width="50" height="50" relative="1" as="geometry">
            <mxPoint x="950" y="2860" as="sourcePoint" />
            <mxPoint x="1000" y="2810" as="targetPoint" />
          </mxGeometry>
        </mxCell>
        <mxCell id="TGCLbbCgSUUB1Ax1djj9-128" value="" style="edgeStyle=orthogonalEdgeStyle;rounded=0;orthogonalLoop=1;jettySize=auto;html=1;" parent="1" source="TGCLbbCgSUUB1Ax1djj9-129" target="TGCLbbCgSUUB1Ax1djj9-110" edge="1">
          <mxGeometry relative="1" as="geometry" />
        </mxCell>
        <mxCell id="TGCLbbCgSUUB1Ax1djj9-129" value="apakah ruangan masih di pakai" style="rounded=0;whiteSpace=wrap;html=1;" parent="1" vertex="1">
          <mxGeometry x="940" y="3010" width="120" height="60" as="geometry" />
        </mxCell>
        <mxCell id="TGCLbbCgSUUB1Ax1djj9-130" value="" style="endArrow=classic;html=1;rounded=0;exitX=1;exitY=0.5;exitDx=0;exitDy=0;entryX=1;entryY=0.5;entryDx=0;entryDy=0;" parent="1" source="TGCLbbCgSUUB1Ax1djj9-114" target="TGCLbbCgSUUB1Ax1djj9-105" edge="1">
          <mxGeometry width="50" height="50" relative="1" as="geometry">
            <mxPoint x="950" y="2860" as="sourcePoint" />
            <mxPoint x="1000" y="2810" as="targetPoint" />
            <Array as="points">
              <mxPoint x="1080" y="2940" />
              <mxPoint x="1080" y="2655" />
            </Array>
          </mxGeometry>
        </mxCell>
        <mxCell id="TGCLbbCgSUUB1Ax1djj9-131" value="" style="endArrow=classic;html=1;rounded=0;exitX=1;exitY=0.5;exitDx=0;exitDy=0;entryX=1;entryY=0.5;entryDx=0;entryDy=0;" parent="1" source="TGCLbbCgSUUB1Ax1djj9-110" target="TGCLbbCgSUUB1Ax1djj9-105" edge="1">
          <mxGeometry width="50" height="50" relative="1" as="geometry">
            <mxPoint x="950" y="2860" as="sourcePoint" />
            <mxPoint x="1000" y="2810" as="targetPoint" />
            <Array as="points">
              <mxPoint x="1100" y="3140" />
              <mxPoint x="1100" y="2655" />
            </Array>
          </mxGeometry>
        </mxCell>
        <mxCell id="TGCLbbCgSUUB1Ax1djj9-132" value="" style="endArrow=classic;html=1;rounded=0;exitX=0.5;exitY=1;exitDx=0;exitDy=0;entryX=0.5;entryY=0;entryDx=0;entryDy=0;" parent="1" source="TGCLbbCgSUUB1Ax1djj9-114" target="TGCLbbCgSUUB1Ax1djj9-129" edge="1">
          <mxGeometry width="50" height="50" relative="1" as="geometry">
            <mxPoint x="950" y="2860" as="sourcePoint" />
            <mxPoint x="1000" y="2810" as="targetPoint" />
          </mxGeometry>
        </mxCell>
        <mxCell id="TGCLbbCgSUUB1Ax1djj9-133" value="ya" style="text;html=1;align=center;verticalAlign=middle;resizable=0;points=[];autosize=1;strokeColor=none;fillColor=none;" parent="1" vertex="1">
          <mxGeometry x="1040" y="3110" width="40" height="30" as="geometry" />
        </mxCell>
        <mxCell id="TGCLbbCgSUUB1Ax1djj9-134" value="tidak" style="text;html=1;align=center;verticalAlign=middle;resizable=0;points=[];autosize=1;strokeColor=none;fillColor=none;" parent="1" vertex="1">
          <mxGeometry x="1000" y="2870" width="50" height="30" as="geometry" />
        </mxCell>
        <mxCell id="TGCLbbCgSUUB1Ax1djj9-135" value="&lt;span style=&quot;color: rgb(0, 0, 0); font-family: Helvetica; font-size: 12px; font-style: normal; font-variant-ligatures: normal; font-variant-caps: normal; font-weight: 400; letter-spacing: normal; orphans: 2; text-align: center; text-indent: 0px; text-transform: none; widows: 2; word-spacing: 0px; -webkit-text-stroke-width: 0px; white-space: nowrap; background-color: rgb(236, 236, 236); text-decoration-thickness: initial; text-decoration-style: initial; text-decoration-color: initial; display: inline !important; float: none;&quot;&gt;tidak&lt;/span&gt;" style="text;whiteSpace=wrap;html=1;" parent="1" vertex="1">
          <mxGeometry x="1015" y="2770" width="32" height="30" as="geometry" />
        </mxCell>
        <mxCell id="TGCLbbCgSUUB1Ax1djj9-136" value="ya" style="text;html=1;align=center;verticalAlign=middle;resizable=0;points=[];autosize=1;strokeColor=none;fillColor=none;" parent="1" vertex="1">
          <mxGeometry x="995" y="2968" width="40" height="30" as="geometry" />
        </mxCell>
        <mxCell id="TGCLbbCgSUUB1Ax1djj9-137" value="delete" style="rounded=1;whiteSpace=wrap;html=1;" parent="1" vertex="1">
          <mxGeometry x="940" y="3190" width="120" height="20" as="geometry" />
        </mxCell>
        <mxCell id="TGCLbbCgSUUB1Ax1djj9-138" value="" style="edgeStyle=orthogonalEdgeStyle;rounded=0;orthogonalLoop=1;jettySize=auto;html=1;" parent="1" source="TGCLbbCgSUUB1Ax1djj9-139" target="TGCLbbCgSUUB1Ax1djj9-142" edge="1">
          <mxGeometry relative="1" as="geometry" />
        </mxCell>
        <mxCell id="TGCLbbCgSUUB1Ax1djj9-139" value="menampilkan ruangan yang ingin di tambahkan" style="rounded=1;whiteSpace=wrap;html=1;" parent="1" vertex="1">
          <mxGeometry x="795" y="2710" width="120" height="60" as="geometry" />
        </mxCell>
        <mxCell id="TGCLbbCgSUUB1Ax1djj9-140" value="" style="edgeStyle=orthogonalEdgeStyle;rounded=0;orthogonalLoop=1;jettySize=auto;html=1;" parent="1" source="TGCLbbCgSUUB1Ax1djj9-141" target="TGCLbbCgSUUB1Ax1djj9-143" edge="1">
          <mxGeometry relative="1" as="geometry" />
        </mxCell>
        <mxCell id="TGCLbbCgSUUB1Ax1djj9-141" value="menamoilkan ruangan yang ingin di edit" style="rounded=1;whiteSpace=wrap;html=1;" parent="1" vertex="1">
          <mxGeometry x="795" y="2810" width="120" height="60" as="geometry" />
        </mxCell>
        <mxCell id="TGCLbbCgSUUB1Ax1djj9-142" value="menginput ruangan yang baru" style="rounded=1;whiteSpace=wrap;html=1;" parent="1" vertex="1">
          <mxGeometry x="630" y="2710" width="120" height="60" as="geometry" />
        </mxCell>
        <mxCell id="TGCLbbCgSUUB1Ax1djj9-143" value="menginput ruangan yang di edit" style="rounded=1;whiteSpace=wrap;html=1;" parent="1" vertex="1">
          <mxGeometry x="630" y="2810" width="120" height="60" as="geometry" />
        </mxCell>
        <mxCell id="TGCLbbCgSUUB1Ax1djj9-144" value="" style="shape=line;html=1;strokeWidth=6;strokeColor=#ff0000;" parent="1" vertex="1">
          <mxGeometry x="790" y="3240" width="130" height="10" as="geometry" />
        </mxCell>
        <mxCell id="TGCLbbCgSUUB1Ax1djj9-145" value="" style="edgeStyle=orthogonalEdgeStyle;html=1;verticalAlign=bottom;endArrow=open;endSize=8;strokeColor=#ff0000;rounded=0;entryX=0.5;entryY=0;entryDx=0;entryDy=0;" parent="1" source="TGCLbbCgSUUB1Ax1djj9-144" target="TGCLbbCgSUUB1Ax1djj9-146" edge="1">
          <mxGeometry relative="1" as="geometry">
            <mxPoint x="970" y="3240" as="targetPoint" />
          </mxGeometry>
        </mxCell>
        <mxCell id="TGCLbbCgSUUB1Ax1djj9-146" value="" style="ellipse;html=1;shape=endState;fillColor=#000000;strokeColor=#ff0000;" parent="1" vertex="1">
          <mxGeometry x="840" y="3290" width="30" height="30" as="geometry" />
        </mxCell>
        <mxCell id="TGCLbbCgSUUB1Ax1djj9-147" value="" style="endArrow=classic;html=1;rounded=0;exitX=0.5;exitY=1;exitDx=0;exitDy=0;entryX=0.75;entryY=0.5;entryDx=0;entryDy=0;entryPerimeter=0;" parent="1" source="TGCLbbCgSUUB1Ax1djj9-137" target="TGCLbbCgSUUB1Ax1djj9-144" edge="1">
          <mxGeometry width="50" height="50" relative="1" as="geometry">
            <mxPoint x="950" y="3230" as="sourcePoint" />
            <mxPoint x="1000" y="3180" as="targetPoint" />
            <Array as="points">
              <mxPoint x="888" y="3210" />
            </Array>
          </mxGeometry>
        </mxCell>
        <mxCell id="TGCLbbCgSUUB1Ax1djj9-148" value="" style="endArrow=classic;html=1;rounded=0;exitX=0;exitY=0.5;exitDx=0;exitDy=0;entryX=0.25;entryY=0.5;entryDx=0;entryDy=0;entryPerimeter=0;" parent="1" source="TGCLbbCgSUUB1Ax1djj9-142" target="TGCLbbCgSUUB1Ax1djj9-144" edge="1">
          <mxGeometry width="50" height="50" relative="1" as="geometry">
            <mxPoint x="950" y="3010" as="sourcePoint" />
            <mxPoint x="1000" y="2960" as="targetPoint" />
            <Array as="points">
              <mxPoint x="600" y="2740" />
              <mxPoint x="610" y="3210" />
              <mxPoint x="823" y="3210" />
            </Array>
          </mxGeometry>
        </mxCell>
        <mxCell id="TGCLbbCgSUUB1Ax1djj9-149" value="" style="endArrow=classic;html=1;rounded=0;exitX=0.5;exitY=1;exitDx=0;exitDy=0;entryX=0.479;entryY=0.379;entryDx=0;entryDy=0;entryPerimeter=0;" parent="1" source="TGCLbbCgSUUB1Ax1djj9-143" target="TGCLbbCgSUUB1Ax1djj9-144" edge="1">
          <mxGeometry width="50" height="50" relative="1" as="geometry">
            <mxPoint x="950" y="3010" as="sourcePoint" />
            <mxPoint x="1000" y="2960" as="targetPoint" />
            <Array as="points">
              <mxPoint x="690" y="3190" />
              <mxPoint x="852" y="3190" />
            </Array>
          </mxGeometry>
        </mxCell>
        <mxCell id="5COaPHWZGKyO4jGJytsA-1" value="&lt;p style=&quot;margin:0px;margin-top:4px;text-align:center;&quot;&gt;&lt;b&gt;sistem&lt;/b&gt;&lt;/p&gt;&lt;hr size=&quot;1&quot; style=&quot;border-style:solid;&quot;&gt;&lt;div style=&quot;height:2px;&quot;&gt;&lt;/div&gt;" style="verticalAlign=top;align=left;overflow=fill;html=1;whiteSpace=wrap;" parent="1" vertex="1">
          <mxGeometry x="1615" y="2500" width="190" height="445" as="geometry" />
        </mxCell>
        <mxCell id="5COaPHWZGKyO4jGJytsA-2" value="&lt;p style=&quot;margin:0px;margin-top:4px;text-align:center;&quot;&gt;&lt;b&gt;admin&lt;/b&gt;&lt;/p&gt;&lt;hr size=&quot;1&quot; style=&quot;border-style:solid;&quot;&gt;&lt;div style=&quot;height:2px;&quot;&gt;&lt;/div&gt;" style="verticalAlign=top;align=left;overflow=fill;html=1;whiteSpace=wrap;" parent="1" vertex="1">
          <mxGeometry x="1805" y="2500" width="190" height="445" as="geometry" />
        </mxCell>
        <mxCell id="5COaPHWZGKyO4jGJytsA-3" value="" style="ellipse;html=1;shape=startState;fillColor=#000000;strokeColor=#ff0000;" parent="1" vertex="1">
          <mxGeometry x="1885" y="2530" width="30" height="30" as="geometry" />
        </mxCell>
        <mxCell id="5COaPHWZGKyO4jGJytsA-4" value="" style="edgeStyle=orthogonalEdgeStyle;html=1;verticalAlign=bottom;endArrow=open;endSize=8;strokeColor=#ff0000;rounded=0;entryX=0.5;entryY=0;entryDx=0;entryDy=0;" parent="1" source="5COaPHWZGKyO4jGJytsA-3" target="5COaPHWZGKyO4jGJytsA-6" edge="1">
          <mxGeometry relative="1" as="geometry">
            <mxPoint x="1905" y="2680" as="targetPoint" />
          </mxGeometry>
        </mxCell>
        <mxCell id="5COaPHWZGKyO4jGJytsA-5" value="" style="ellipse;html=1;shape=endState;fillColor=#000000;strokeColor=#ff0000;" parent="1" vertex="1">
          <mxGeometry x="1705" y="2840" width="30" height="30" as="geometry" />
        </mxCell>
        <mxCell id="5COaPHWZGKyO4jGJytsA-6" value="waktu dan tempat" style="rounded=0;whiteSpace=wrap;html=1;" parent="1" vertex="1">
          <mxGeometry x="1840" y="2600" width="120" height="60" as="geometry" />
        </mxCell>
        <mxCell id="5COaPHWZGKyO4jGJytsA-7" value="data meminjam dan pengembalian" style="rounded=0;whiteSpace=wrap;html=1;" parent="1" vertex="1">
          <mxGeometry x="1660" y="2710" width="120" height="60" as="geometry" />
        </mxCell>
        <mxCell id="5COaPHWZGKyO4jGJytsA-9" value="" style="endArrow=classic;html=1;rounded=0;exitX=0.5;exitY=1;exitDx=0;exitDy=0;entryX=0.5;entryY=0;entryDx=0;entryDy=0;" parent="1" source="5COaPHWZGKyO4jGJytsA-6" target="5COaPHWZGKyO4jGJytsA-7" edge="1">
          <mxGeometry width="50" height="50" relative="1" as="geometry">
            <mxPoint x="1880" y="2660" as="sourcePoint" />
            <mxPoint x="1930" y="2610" as="targetPoint" />
            <Array as="points">
              <mxPoint x="1720" y="2660" />
            </Array>
          </mxGeometry>
        </mxCell>
        <mxCell id="5COaPHWZGKyO4jGJytsA-10" value="" style="endArrow=classic;html=1;rounded=0;exitX=0.5;exitY=1;exitDx=0;exitDy=0;entryX=0.5;entryY=0;entryDx=0;entryDy=0;" parent="1" source="5COaPHWZGKyO4jGJytsA-7" target="5COaPHWZGKyO4jGJytsA-5" edge="1">
          <mxGeometry width="50" height="50" relative="1" as="geometry">
            <mxPoint x="1880" y="2660" as="sourcePoint" />
            <mxPoint x="1930" y="2610" as="targetPoint" />
          </mxGeometry>
        </mxCell>
        <mxCell id="5COaPHWZGKyO4jGJytsA-11" value="&lt;span style=&quot;font-size: 20px;&quot;&gt;&lt;b&gt;login&lt;/b&gt;&lt;/span&gt;" style="text;html=1;align=center;verticalAlign=middle;resizable=0;points=[];autosize=1;strokeColor=none;fillColor=none;" parent="1" vertex="1">
          <mxGeometry x="510" y="320" width="70" height="40" as="geometry" />
        </mxCell>
        <mxCell id="5COaPHWZGKyO4jGJytsA-12" value="&lt;span style=&quot;font-size: 20px;&quot;&gt;&lt;b&gt;peminjaman admin dan user&lt;/b&gt;&lt;/span&gt;" style="text;html=1;align=center;verticalAlign=middle;resizable=0;points=[];autosize=1;strokeColor=none;fillColor=none;" parent="1" vertex="1">
          <mxGeometry x="1145" y="323" width="290" height="40" as="geometry" />
        </mxCell>
        <mxCell id="5COaPHWZGKyO4jGJytsA-13" value="&lt;span style=&quot;font-size: 20px;&quot;&gt;&lt;b&gt;ringkasan peminjaman dan pengembalian&lt;/b&gt;&lt;/span&gt;" style="text;html=1;align=center;verticalAlign=middle;resizable=0;points=[];autosize=1;strokeColor=none;fillColor=none;" parent="1" vertex="1">
          <mxGeometry x="1690" y="895" width="420" height="40" as="geometry" />
        </mxCell>
        <mxCell id="5COaPHWZGKyO4jGJytsA-14" value="&lt;span style=&quot;font-size: 20px;&quot;&gt;pengembalian user dan admin&lt;/span&gt;" style="text;html=1;align=center;verticalAlign=middle;resizable=0;points=[];autosize=1;strokeColor=none;fillColor=none;" parent="1" vertex="1">
          <mxGeometry x="1135" y="1283" width="290" height="40" as="geometry" />
        </mxCell>
        <mxCell id="5COaPHWZGKyO4jGJytsA-15" value="&lt;span style=&quot;font-size: 20px;&quot;&gt;&lt;b&gt;pengembalian admin&lt;/b&gt;&lt;/span&gt;" style="text;html=1;align=center;verticalAlign=middle;resizable=0;points=[];autosize=1;strokeColor=none;fillColor=none;" parent="1" vertex="1">
          <mxGeometry x="1670" y="2443" width="220" height="40" as="geometry" />
        </mxCell>
        <mxCell id="5COaPHWZGKyO4jGJytsA-16" value="&lt;span style=&quot;font-size: 20px;&quot;&gt;&lt;b&gt;CRUD ADMIN&lt;/b&gt;&lt;/span&gt;" style="text;html=1;align=center;verticalAlign=middle;resizable=0;points=[];autosize=1;strokeColor=none;fillColor=none;" parent="1" vertex="1">
          <mxGeometry x="715" y="2433" width="150" height="40" as="geometry" />
        </mxCell>
        <mxCell id="5COaPHWZGKyO4jGJytsA-17" value="&lt;span style=&quot;font-size: 20px;&quot;&gt;&lt;b&gt;logout&lt;/b&gt;&lt;/span&gt;" style="text;html=1;align=center;verticalAlign=middle;resizable=0;points=[];autosize=1;strokeColor=none;fillColor=none;" parent="1" vertex="1">
          <mxGeometry x="510" y="1343" width="80" height="40" as="geometry" />
        </mxCell>
      </root>
    </mxGraphModel>
  </diagram>
  <diagram id="M7W24H7XA0v0EkxudUWy" name="ERD">
    <mxGraphModel dx="1214" dy="757" grid="1" gridSize="10" guides="1" tooltips="1" connect="1" arrows="1" fold="1" page="1" pageScale="1" pageWidth="2336" pageHeight="1654" math="0" shadow="0">
      <root>
        <mxCell id="0" />
        <mxCell id="1" parent="0" />
        <mxCell id="dcKJ_blKcE5FHfQ5p7kZ-1" value="users" style="rounded=0;whiteSpace=wrap;html=1;fillColor=#f5f5f5;strokeColor=#666666;fontColor=#333333;" parent="1" vertex="1">
          <mxGeometry x="560" y="790" width="120" height="60" as="geometry" />
        </mxCell>
        <mxCell id="dcKJ_blKcE5FHfQ5p7kZ-2" value="user_id" style="ellipse;whiteSpace=wrap;html=1;fillColor=#f5f5f5;fontColor=#333333;strokeColor=#666666;" parent="1" vertex="1">
          <mxGeometry x="370" y="730" width="120" height="50" as="geometry" />
        </mxCell>
        <mxCell id="dcKJ_blKcE5FHfQ5p7kZ-3" value="Id_card" style="ellipse;whiteSpace=wrap;html=1;fillColor=#f5f5f5;fontColor=#333333;strokeColor=#666666;" parent="1" vertex="1">
          <mxGeometry x="410" y="680" width="120" height="50" as="geometry" />
        </mxCell>
        <mxCell id="dcKJ_blKcE5FHfQ5p7kZ-4" value="username" style="ellipse;whiteSpace=wrap;html=1;fillColor=#f5f5f5;fontColor=#333333;strokeColor=#666666;" parent="1" vertex="1">
          <mxGeometry x="470" y="630" width="120" height="50" as="geometry" />
        </mxCell>
        <mxCell id="dcKJ_blKcE5FHfQ5p7kZ-5" value="password" style="ellipse;whiteSpace=wrap;html=1;fillColor=#f5f5f5;fontColor=#333333;strokeColor=#666666;" parent="1" vertex="1">
          <mxGeometry x="650" y="630" width="120" height="50" as="geometry" />
        </mxCell>
        <mxCell id="dcKJ_blKcE5FHfQ5p7kZ-6" value="role" style="ellipse;whiteSpace=wrap;html=1;fillColor=#f5f5f5;fontColor=#333333;strokeColor=#666666;" parent="1" vertex="1">
          <mxGeometry x="710" y="680" width="120" height="50" as="geometry" />
        </mxCell>
        <mxCell id="dcKJ_blKcE5FHfQ5p7kZ-7" value="jenis penggunaan" style="ellipse;whiteSpace=wrap;html=1;fillColor=#f5f5f5;fontColor=#333333;strokeColor=#666666;" parent="1" vertex="1">
          <mxGeometry x="570" y="590" width="120" height="50" as="geometry" />
        </mxCell>
        <mxCell id="dcKJ_blKcE5FHfQ5p7kZ-8" value="nama lengkap&amp;nbsp;" style="ellipse;whiteSpace=wrap;html=1;fillColor=#f5f5f5;fontColor=#333333;strokeColor=#666666;" parent="1" vertex="1">
          <mxGeometry x="770" y="730" width="120" height="50" as="geometry" />
        </mxCell>
        <mxCell id="dcKJ_blKcE5FHfQ5p7kZ-9" value="" style="endArrow=none;html=1;rounded=0;exitX=0.5;exitY=1;exitDx=0;exitDy=0;entryX=0.5;entryY=0;entryDx=0;entryDy=0;fillColor=#f5f5f5;strokeColor=#666666;" parent="1" source="dcKJ_blKcE5FHfQ5p7kZ-7" target="dcKJ_blKcE5FHfQ5p7kZ-1" edge="1">
          <mxGeometry width="50" height="50" relative="1" as="geometry">
            <mxPoint x="620" y="830" as="sourcePoint" />
            <mxPoint x="670" y="780" as="targetPoint" />
          </mxGeometry>
        </mxCell>
        <mxCell id="dcKJ_blKcE5FHfQ5p7kZ-10" value="" style="endArrow=none;html=1;rounded=0;exitX=0;exitY=1;exitDx=0;exitDy=0;fillColor=#f5f5f5;strokeColor=#666666;" parent="1" source="dcKJ_blKcE5FHfQ5p7kZ-5" edge="1">
          <mxGeometry width="50" height="50" relative="1" as="geometry">
            <mxPoint x="660" y="710" as="sourcePoint" />
            <mxPoint x="620" y="790" as="targetPoint" />
          </mxGeometry>
        </mxCell>
        <mxCell id="dcKJ_blKcE5FHfQ5p7kZ-11" value="" style="endArrow=none;html=1;rounded=0;exitX=1;exitY=1;exitDx=0;exitDy=0;entryX=0.5;entryY=0;entryDx=0;entryDy=0;fillColor=#f5f5f5;strokeColor=#666666;" parent="1" source="dcKJ_blKcE5FHfQ5p7kZ-4" target="dcKJ_blKcE5FHfQ5p7kZ-1" edge="1">
          <mxGeometry width="50" height="50" relative="1" as="geometry">
            <mxPoint x="580" y="720" as="sourcePoint" />
            <mxPoint x="570" y="870" as="targetPoint" />
          </mxGeometry>
        </mxCell>
        <mxCell id="dcKJ_blKcE5FHfQ5p7kZ-12" value="" style="endArrow=none;html=1;rounded=0;exitX=1;exitY=1;exitDx=0;exitDy=0;entryX=0.5;entryY=0;entryDx=0;entryDy=0;fillColor=#f5f5f5;strokeColor=#666666;" parent="1" source="dcKJ_blKcE5FHfQ5p7kZ-3" target="dcKJ_blKcE5FHfQ5p7kZ-1" edge="1">
          <mxGeometry width="50" height="50" relative="1" as="geometry">
            <mxPoint x="560" y="760" as="sourcePoint" />
            <mxPoint x="550" y="910" as="targetPoint" />
          </mxGeometry>
        </mxCell>
        <mxCell id="dcKJ_blKcE5FHfQ5p7kZ-13" value="" style="endArrow=none;html=1;rounded=0;exitX=1;exitY=0.5;exitDx=0;exitDy=0;entryX=0.446;entryY=-0.033;entryDx=0;entryDy=0;entryPerimeter=0;fillColor=#f5f5f5;strokeColor=#666666;" parent="1" source="dcKJ_blKcE5FHfQ5p7kZ-2" target="dcKJ_blKcE5FHfQ5p7kZ-1" edge="1">
          <mxGeometry width="50" height="50" relative="1" as="geometry">
            <mxPoint x="510" y="790" as="sourcePoint" />
            <mxPoint x="500" y="940" as="targetPoint" />
          </mxGeometry>
        </mxCell>
        <mxCell id="dcKJ_blKcE5FHfQ5p7kZ-14" value="" style="endArrow=none;html=1;rounded=0;exitX=0;exitY=0.5;exitDx=0;exitDy=0;entryX=0.5;entryY=0;entryDx=0;entryDy=0;fillColor=#f5f5f5;strokeColor=#666666;" parent="1" source="dcKJ_blKcE5FHfQ5p7kZ-6" target="dcKJ_blKcE5FHfQ5p7kZ-1" edge="1">
          <mxGeometry width="50" height="50" relative="1" as="geometry">
            <mxPoint x="680" y="720" as="sourcePoint" />
            <mxPoint x="670" y="870" as="targetPoint" />
          </mxGeometry>
        </mxCell>
        <mxCell id="dcKJ_blKcE5FHfQ5p7kZ-15" value="" style="endArrow=none;html=1;rounded=0;exitX=0;exitY=0.5;exitDx=0;exitDy=0;entryX=0.5;entryY=0;entryDx=0;entryDy=0;fillColor=#f5f5f5;strokeColor=#666666;" parent="1" source="dcKJ_blKcE5FHfQ5p7kZ-8" target="dcKJ_blKcE5FHfQ5p7kZ-1" edge="1">
          <mxGeometry width="50" height="50" relative="1" as="geometry">
            <mxPoint x="760" y="750" as="sourcePoint" />
            <mxPoint x="750" y="900" as="targetPoint" />
          </mxGeometry>
        </mxCell>
        <mxCell id="dcKJ_blKcE5FHfQ5p7kZ-16" value="peminjaman" style="rhombus;whiteSpace=wrap;html=1;fillColor=#f5f5f5;fontColor=#333333;strokeColor=#666666;" parent="1" vertex="1">
          <mxGeometry x="800" y="940" width="80" height="80" as="geometry" />
        </mxCell>
        <mxCell id="dcKJ_blKcE5FHfQ5p7kZ-17" value="" style="endArrow=none;html=1;rounded=0;entryX=1;entryY=0.5;entryDx=0;entryDy=0;" parent="1" source="dcKJ_blKcE5FHfQ5p7kZ-16" target="dcKJ_blKcE5FHfQ5p7kZ-1" edge="1">
          <mxGeometry width="50" height="50" relative="1" as="geometry">
            <mxPoint x="740" y="910" as="sourcePoint" />
            <mxPoint x="590" y="1050" as="targetPoint" />
          </mxGeometry>
        </mxCell>
        <mxCell id="dcKJ_blKcE5FHfQ5p7kZ-18" value="ruangan" style="rounded=0;whiteSpace=wrap;html=1;fillColor=#f5f5f5;fontColor=#333333;strokeColor=#666666;" parent="1" vertex="1">
          <mxGeometry x="330" y="1100" width="120" height="60" as="geometry" />
        </mxCell>
        <mxCell id="dcKJ_blKcE5FHfQ5p7kZ-19" value="&lt;u&gt;ruangan_id&lt;/u&gt;" style="ellipse;whiteSpace=wrap;html=1;fillColor=#f5f5f5;fontColor=#333333;strokeColor=#666666;" parent="1" vertex="1">
          <mxGeometry x="220" y="980" width="120" height="50" as="geometry" />
        </mxCell>
        <mxCell id="dcKJ_blKcE5FHfQ5p7kZ-20" value="nama_ruangan" style="ellipse;whiteSpace=wrap;html=1;fillColor=#f5f5f5;fontColor=#333333;strokeColor=#666666;" parent="1" vertex="1">
          <mxGeometry x="100" y="1030" width="120" height="50" as="geometry" />
        </mxCell>
        <mxCell id="dcKJ_blKcE5FHfQ5p7kZ-21" value="lokasi" style="ellipse;whiteSpace=wrap;html=1;fillColor=#f5f5f5;fontColor=#333333;strokeColor=#666666;" parent="1" vertex="1">
          <mxGeometry x="100" y="1160" width="120" height="50" as="geometry" />
        </mxCell>
        <mxCell id="dcKJ_blKcE5FHfQ5p7kZ-22" value="kapasitas" style="ellipse;whiteSpace=wrap;html=1;fillColor=#f5f5f5;fontColor=#333333;strokeColor=#666666;" parent="1" vertex="1">
          <mxGeometry x="220" y="1210" width="120" height="50" as="geometry" />
        </mxCell>
        <mxCell id="dcKJ_blKcE5FHfQ5p7kZ-23" value="" style="endArrow=none;html=1;rounded=0;" parent="1" target="dcKJ_blKcE5FHfQ5p7kZ-20" edge="1">
          <mxGeometry width="50" height="50" relative="1" as="geometry">
            <mxPoint x="330" y="1130" as="sourcePoint" />
            <mxPoint x="540" y="1030" as="targetPoint" />
          </mxGeometry>
        </mxCell>
        <mxCell id="dcKJ_blKcE5FHfQ5p7kZ-24" value="" style="endArrow=none;html=1;rounded=0;exitX=1;exitY=0;exitDx=0;exitDy=0;entryX=0;entryY=0.5;entryDx=0;entryDy=0;" parent="1" source="dcKJ_blKcE5FHfQ5p7kZ-21" target="dcKJ_blKcE5FHfQ5p7kZ-18" edge="1">
          <mxGeometry width="50" height="50" relative="1" as="geometry">
            <mxPoint x="564" y="1284" as="sourcePoint" />
            <mxPoint x="440" y="1240" as="targetPoint" />
          </mxGeometry>
        </mxCell>
        <mxCell id="dcKJ_blKcE5FHfQ5p7kZ-25" value="" style="endArrow=none;html=1;rounded=0;exitX=0.411;exitY=1.046;exitDx=0;exitDy=0;exitPerimeter=0;entryX=0;entryY=0.5;entryDx=0;entryDy=0;" parent="1" source="dcKJ_blKcE5FHfQ5p7kZ-19" target="dcKJ_blKcE5FHfQ5p7kZ-18" edge="1">
          <mxGeometry width="50" height="50" relative="1" as="geometry">
            <mxPoint x="490" y="1080" as="sourcePoint" />
            <mxPoint x="540" y="1030" as="targetPoint" />
          </mxGeometry>
        </mxCell>
        <mxCell id="dcKJ_blKcE5FHfQ5p7kZ-26" value="" style="endArrow=none;html=1;rounded=0;exitX=0;exitY=0.5;exitDx=0;exitDy=0;entryX=0.5;entryY=0;entryDx=0;entryDy=0;" parent="1" source="dcKJ_blKcE5FHfQ5p7kZ-18" target="dcKJ_blKcE5FHfQ5p7kZ-22" edge="1">
          <mxGeometry width="50" height="50" relative="1" as="geometry">
            <mxPoint x="490" y="1080" as="sourcePoint" />
            <mxPoint x="540" y="1030" as="targetPoint" />
          </mxGeometry>
        </mxCell>
        <mxCell id="dcKJ_blKcE5FHfQ5p7kZ-27" value="pinjam" style="rhombus;whiteSpace=wrap;html=1;fillColor=#f5f5f5;fontColor=#333333;strokeColor=#666666;" parent="1" vertex="1">
          <mxGeometry x="580" y="1090" width="80" height="80" as="geometry" />
        </mxCell>
        <mxCell id="dcKJ_blKcE5FHfQ5p7kZ-28" value="" style="endArrow=none;html=1;rounded=0;exitX=1;exitY=0.5;exitDx=0;exitDy=0;entryX=0;entryY=0.5;entryDx=0;entryDy=0;" parent="1" source="dcKJ_blKcE5FHfQ5p7kZ-18" target="dcKJ_blKcE5FHfQ5p7kZ-27" edge="1">
          <mxGeometry width="50" height="50" relative="1" as="geometry">
            <mxPoint x="660" y="1120" as="sourcePoint" />
            <mxPoint x="710" y="1070" as="targetPoint" />
          </mxGeometry>
        </mxCell>
        <mxCell id="dcKJ_blKcE5FHfQ5p7kZ-29" value="&lt;u&gt;ruangan_id&lt;/u&gt;" style="ellipse;whiteSpace=wrap;html=1;fillColor=#f5f5f5;fontColor=#333333;strokeColor=#666666;" parent="1" vertex="1">
          <mxGeometry x="1050" y="1050" width="120" height="50" as="geometry" />
        </mxCell>
        <mxCell id="dcKJ_blKcE5FHfQ5p7kZ-30" value="&lt;u&gt;user_id&lt;/u&gt;" style="ellipse;whiteSpace=wrap;html=1;fillColor=#f5f5f5;fontColor=#333333;strokeColor=#666666;" parent="1" vertex="1">
          <mxGeometry x="950" y="1010" width="120" height="50" as="geometry" />
        </mxCell>
        <mxCell id="dcKJ_blKcE5FHfQ5p7kZ-31" value="waktu_mulai" style="ellipse;whiteSpace=wrap;html=1;fillColor=#f5f5f5;fontColor=#333333;strokeColor=#666666;" parent="1" vertex="1">
          <mxGeometry x="1020" y="1260" width="120" height="50" as="geometry" />
        </mxCell>
        <mxCell id="dcKJ_blKcE5FHfQ5p7kZ-32" value="tanggal" style="ellipse;whiteSpace=wrap;html=1;fillColor=#f5f5f5;fontColor=#333333;strokeColor=#666666;" parent="1" vertex="1">
          <mxGeometry x="1030" y="1150" width="120" height="50" as="geometry" />
        </mxCell>
        <mxCell id="dcKJ_blKcE5FHfQ5p7kZ-33" value="" style="endArrow=none;html=1;rounded=0;exitX=1;exitY=0.5;exitDx=0;exitDy=0;" parent="1" source="dcKJ_blKcE5FHfQ5p7kZ-37" target="dcKJ_blKcE5FHfQ5p7kZ-30" edge="1">
          <mxGeometry width="50" height="50" relative="1" as="geometry">
            <mxPoint x="1070" y="1280" as="sourcePoint" />
            <mxPoint x="1280" y="1180" as="targetPoint" />
          </mxGeometry>
        </mxCell>
        <mxCell id="dcKJ_blKcE5FHfQ5p7kZ-34" value="" style="endArrow=none;html=1;rounded=0;exitX=0;exitY=0;exitDx=0;exitDy=0;entryX=1;entryY=0.5;entryDx=0;entryDy=0;" parent="1" source="dcKJ_blKcE5FHfQ5p7kZ-31" target="dcKJ_blKcE5FHfQ5p7kZ-37" edge="1">
          <mxGeometry width="50" height="50" relative="1" as="geometry">
            <mxPoint x="1304" y="1434" as="sourcePoint" />
            <mxPoint x="1070" y="1280" as="targetPoint" />
          </mxGeometry>
        </mxCell>
        <mxCell id="dcKJ_blKcE5FHfQ5p7kZ-35" value="" style="endArrow=none;html=1;rounded=0;exitX=0.411;exitY=1.046;exitDx=0;exitDy=0;exitPerimeter=0;entryX=1;entryY=0.5;entryDx=0;entryDy=0;" parent="1" source="dcKJ_blKcE5FHfQ5p7kZ-29" target="dcKJ_blKcE5FHfQ5p7kZ-37" edge="1">
          <mxGeometry width="50" height="50" relative="1" as="geometry">
            <mxPoint x="1230" y="1230" as="sourcePoint" />
            <mxPoint x="1070" y="1280" as="targetPoint" />
          </mxGeometry>
        </mxCell>
        <mxCell id="dcKJ_blKcE5FHfQ5p7kZ-36" value="" style="endArrow=none;html=1;rounded=0;exitX=1;exitY=0.5;exitDx=0;exitDy=0;entryX=0;entryY=0;entryDx=0;entryDy=0;" parent="1" source="dcKJ_blKcE5FHfQ5p7kZ-37" target="dcKJ_blKcE5FHfQ5p7kZ-32" edge="1">
          <mxGeometry width="50" height="50" relative="1" as="geometry">
            <mxPoint x="1070" y="1280" as="sourcePoint" />
            <mxPoint x="1280" y="1180" as="targetPoint" />
          </mxGeometry>
        </mxCell>
        <mxCell id="dcKJ_blKcE5FHfQ5p7kZ-37" value="peminjaman_ruangan" style="rounded=0;whiteSpace=wrap;html=1;fillColor=#f5f5f5;fontColor=#333333;strokeColor=#666666;" parent="1" vertex="1">
          <mxGeometry x="780" y="1100" width="120" height="60" as="geometry" />
        </mxCell>
        <mxCell id="dcKJ_blKcE5FHfQ5p7kZ-38" value="" style="endArrow=none;html=1;rounded=0;exitX=1;exitY=0.5;exitDx=0;exitDy=0;entryX=0;entryY=0.5;entryDx=0;entryDy=0;" parent="1" source="dcKJ_blKcE5FHfQ5p7kZ-27" target="dcKJ_blKcE5FHfQ5p7kZ-37" edge="1">
          <mxGeometry width="50" height="50" relative="1" as="geometry">
            <mxPoint x="720" y="1160" as="sourcePoint" />
            <mxPoint x="770" y="1110" as="targetPoint" />
          </mxGeometry>
        </mxCell>
        <mxCell id="dcKJ_blKcE5FHfQ5p7kZ-39" value="&lt;u style=&quot;line-height: 150%;&quot;&gt;ruangan_id&lt;/u&gt;" style="ellipse;whiteSpace=wrap;html=1;fillColor=#f5f5f5;fontColor=#333333;strokeColor=#666666;" parent="1" vertex="1">
          <mxGeometry x="560" y="1010" width="120" height="50" as="geometry" />
        </mxCell>
        <mxCell id="dcKJ_blKcE5FHfQ5p7kZ-40" value="" style="endArrow=none;html=1;rounded=0;exitX=0.5;exitY=0;exitDx=0;exitDy=0;entryX=0.5;entryY=1;entryDx=0;entryDy=0;" parent="1" source="dcKJ_blKcE5FHfQ5p7kZ-27" target="dcKJ_blKcE5FHfQ5p7kZ-39" edge="1">
          <mxGeometry width="50" height="50" relative="1" as="geometry">
            <mxPoint x="720" y="1160" as="sourcePoint" />
            <mxPoint x="770" y="1110" as="targetPoint" />
          </mxGeometry>
        </mxCell>
        <mxCell id="dcKJ_blKcE5FHfQ5p7kZ-41" value="" style="endArrow=none;html=1;rounded=0;entryX=0.5;entryY=1;entryDx=0;entryDy=0;exitX=0.5;exitY=0;exitDx=0;exitDy=0;" parent="1" source="dcKJ_blKcE5FHfQ5p7kZ-37" target="dcKJ_blKcE5FHfQ5p7kZ-16" edge="1">
          <mxGeometry width="50" height="50" relative="1" as="geometry">
            <mxPoint x="580" y="1070" as="sourcePoint" />
            <mxPoint x="630" y="1020" as="targetPoint" />
          </mxGeometry>
        </mxCell>
        <mxCell id="dcKJ_blKcE5FHfQ5p7kZ-42" value="&lt;u&gt;user_id&lt;/u&gt;" style="ellipse;whiteSpace=wrap;html=1;fillColor=#f5f5f5;fontColor=#333333;strokeColor=#666666;" parent="1" vertex="1">
          <mxGeometry x="890" y="900" width="120" height="50" as="geometry" />
        </mxCell>
        <mxCell id="dcKJ_blKcE5FHfQ5p7kZ-43" value="" style="endArrow=none;html=1;rounded=0;entryX=0.043;entryY=0.811;entryDx=0;entryDy=0;entryPerimeter=0;exitX=1;exitY=0;exitDx=0;exitDy=0;" parent="1" source="dcKJ_blKcE5FHfQ5p7kZ-16" target="dcKJ_blKcE5FHfQ5p7kZ-42" edge="1">
          <mxGeometry width="50" height="50" relative="1" as="geometry">
            <mxPoint x="580" y="1070" as="sourcePoint" />
            <mxPoint x="630" y="1020" as="targetPoint" />
          </mxGeometry>
        </mxCell>
        <mxCell id="dcKJ_blKcE5FHfQ5p7kZ-44" value="Durasi_pinham" style="ellipse;whiteSpace=wrap;html=1;fillColor=#f5f5f5;fontColor=#333333;strokeColor=#666666;" parent="1" vertex="1">
          <mxGeometry x="1170" y="1090" width="120" height="50" as="geometry" />
        </mxCell>
        <mxCell id="dcKJ_blKcE5FHfQ5p7kZ-45" value="" style="endArrow=none;html=1;rounded=0;entryX=0;entryY=0.5;entryDx=0;entryDy=0;exitX=1;exitY=0.5;exitDx=0;exitDy=0;" parent="1" source="dcKJ_blKcE5FHfQ5p7kZ-37" target="dcKJ_blKcE5FHfQ5p7kZ-44" edge="1">
          <mxGeometry width="50" height="50" relative="1" as="geometry">
            <mxPoint x="760" y="1300" as="sourcePoint" />
            <mxPoint x="530" y="1360" as="targetPoint" />
          </mxGeometry>
        </mxCell>
        <mxCell id="dcKJ_blKcE5FHfQ5p7kZ-46" value="waktu_selesai" style="ellipse;whiteSpace=wrap;html=1;fillColor=#f5f5f5;fontColor=#333333;strokeColor=#666666;" parent="1" vertex="1">
          <mxGeometry x="1140" y="1210" width="120" height="50" as="geometry" />
        </mxCell>
        <mxCell id="dcKJ_blKcE5FHfQ5p7kZ-47" value="" style="endArrow=none;html=1;rounded=0;entryX=0.06;entryY=0.738;entryDx=0;entryDy=0;entryPerimeter=0;exitX=1;exitY=0.5;exitDx=0;exitDy=0;" parent="1" source="dcKJ_blKcE5FHfQ5p7kZ-37" target="dcKJ_blKcE5FHfQ5p7kZ-46" edge="1">
          <mxGeometry width="50" height="50" relative="1" as="geometry">
            <mxPoint x="1150" y="1230" as="sourcePoint" />
            <mxPoint x="1060" y="1330" as="targetPoint" />
          </mxGeometry>
        </mxCell>
        <mxCell id="dcKJ_blKcE5FHfQ5p7kZ-48" value="status" style="ellipse;whiteSpace=wrap;html=1;fillColor=#f5f5f5;fontColor=#333333;strokeColor=#666666;" parent="1" vertex="1">
          <mxGeometry x="880" y="1270" width="120" height="50" as="geometry" />
        </mxCell>
        <mxCell id="dcKJ_blKcE5FHfQ5p7kZ-49" value="" style="endArrow=none;html=1;rounded=0;entryX=0.5;entryY=0;entryDx=0;entryDy=0;exitX=1;exitY=0.5;exitDx=0;exitDy=0;" parent="1" source="dcKJ_blKcE5FHfQ5p7kZ-37" target="dcKJ_blKcE5FHfQ5p7kZ-48" edge="1">
          <mxGeometry width="50" height="50" relative="1" as="geometry">
            <mxPoint x="1330" y="1200" as="sourcePoint" />
            <mxPoint x="1100" y="1260" as="targetPoint" />
          </mxGeometry>
        </mxCell>
        <mxCell id="2lZTCELRDJbcuVbUC0f_-1" value="Many" style="text;html=1;align=center;verticalAlign=middle;resizable=0;points=[];autosize=1;strokeColor=none;fillColor=none;" parent="1" vertex="1">
          <mxGeometry x="715" y="838" width="50" height="30" as="geometry" />
        </mxCell>
        <mxCell id="2lZTCELRDJbcuVbUC0f_-2" value="One" style="text;html=1;align=center;verticalAlign=middle;resizable=0;points=[];autosize=1;strokeColor=none;fillColor=none;" parent="1" vertex="1">
          <mxGeometry x="830" y="1040" width="50" height="30" as="geometry" />
        </mxCell>
        <mxCell id="2lZTCELRDJbcuVbUC0f_-3" value="Many" style="text;html=1;align=center;verticalAlign=middle;resizable=0;points=[];autosize=1;strokeColor=none;fillColor=none;" parent="1" vertex="1">
          <mxGeometry x="685" y="1090" width="50" height="30" as="geometry" />
        </mxCell>
        <mxCell id="2lZTCELRDJbcuVbUC0f_-4" value="One" style="text;html=1;align=center;verticalAlign=middle;resizable=0;points=[];autosize=1;strokeColor=none;fillColor=none;" parent="1" vertex="1">
          <mxGeometry x="490" y="1090" width="50" height="30" as="geometry" />
        </mxCell>
      </root>
    </mxGraphModel>
  </diagram>
  <diagram id="DpAtY5_c1FTE8ZafgKXf" name="DFD">
    <mxGraphModel dx="1214" dy="757" grid="1" gridSize="10" guides="1" tooltips="1" connect="1" arrows="1" fold="1" page="1" pageScale="1" pageWidth="2336" pageHeight="1654" math="0" shadow="0">
      <root>
        <mxCell id="0" />
        <mxCell id="1" parent="0" />
        <mxCell id="Dkx161YVqXsfXfBSNgs8-1" value="Sistem penyewaan kamar" style="ellipse;whiteSpace=wrap;html=1;aspect=fixed;fillColor=#f5f5f5;fontColor=#333333;strokeColor=#666666;" parent="1" vertex="1">
          <mxGeometry x="520" y="920" width="100" height="100" as="geometry" />
        </mxCell>
        <mxCell id="Dkx161YVqXsfXfBSNgs8-2" value="Admin" style="whiteSpace=wrap;html=1;aspect=fixed;fillColor=#f5f5f5;fontColor=#333333;strokeColor=#666666;" parent="1" vertex="1">
          <mxGeometry x="530" y="260" width="80" height="80" as="geometry" />
        </mxCell>
        <mxCell id="Dkx161YVqXsfXfBSNgs8-3" value="User" style="whiteSpace=wrap;html=1;aspect=fixed;fillColor=#f5f5f5;fontColor=#333333;strokeColor=#666666;" parent="1" vertex="1">
          <mxGeometry x="1150" y="928" width="80" height="80" as="geometry" />
        </mxCell>
        <mxCell id="Dkx161YVqXsfXfBSNgs8-4" value="" style="group;labelBackgroundColor=none;fontColor=#1D3557;" parent="1" vertex="1" connectable="0">
          <mxGeometry x="410" y="1110" width="137.5" height="30" as="geometry" />
        </mxCell>
        <mxCell id="Dkx161YVqXsfXfBSNgs8-5" value="" style="endArrow=none;html=1;rounded=0;labelBackgroundColor=none;strokeColor=#457B9D;fontColor=default;" parent="Dkx161YVqXsfXfBSNgs8-4" edge="1">
          <mxGeometry width="50" height="50" relative="1" as="geometry">
            <mxPoint as="sourcePoint" />
            <mxPoint x="137.5" as="targetPoint" />
          </mxGeometry>
        </mxCell>
        <mxCell id="Dkx161YVqXsfXfBSNgs8-6" value="" style="endArrow=none;html=1;rounded=0;labelBackgroundColor=none;strokeColor=#457B9D;fontColor=default;" parent="Dkx161YVqXsfXfBSNgs8-4" edge="1">
          <mxGeometry width="50" height="50" relative="1" as="geometry">
            <mxPoint y="30" as="sourcePoint" />
            <mxPoint x="137.5" y="30" as="targetPoint" />
          </mxGeometry>
        </mxCell>
        <mxCell id="Dkx161YVqXsfXfBSNgs8-7" value="Laporan peminjaman" style="text;strokeColor=none;align=center;fillColor=none;html=1;verticalAlign=middle;whiteSpace=wrap;rounded=0;labelBackgroundColor=none;fontColor=#1D3557;" parent="Dkx161YVqXsfXfBSNgs8-4" vertex="1">
          <mxGeometry width="137.5" height="30" as="geometry" />
        </mxCell>
        <mxCell id="Dkx161YVqXsfXfBSNgs8-8" value="" style="group;labelBackgroundColor=none;fontColor=#1D3557;" parent="1" vertex="1" connectable="0">
          <mxGeometry x="600" y="1110" width="137.5" height="30" as="geometry" />
        </mxCell>
        <mxCell id="Dkx161YVqXsfXfBSNgs8-9" value="" style="endArrow=none;html=1;rounded=0;labelBackgroundColor=none;strokeColor=#457B9D;fontColor=default;" parent="Dkx161YVqXsfXfBSNgs8-8" edge="1">
          <mxGeometry width="50" height="50" relative="1" as="geometry">
            <mxPoint as="sourcePoint" />
            <mxPoint x="137.5" as="targetPoint" />
          </mxGeometry>
        </mxCell>
        <mxCell id="Dkx161YVqXsfXfBSNgs8-10" value="" style="endArrow=none;html=1;rounded=0;labelBackgroundColor=none;strokeColor=#457B9D;fontColor=default;" parent="Dkx161YVqXsfXfBSNgs8-8" edge="1">
          <mxGeometry width="50" height="50" relative="1" as="geometry">
            <mxPoint y="30" as="sourcePoint" />
            <mxPoint x="137.5" y="30" as="targetPoint" />
          </mxGeometry>
        </mxCell>
        <mxCell id="Dkx161YVqXsfXfBSNgs8-11" value="Waktu peminjaman" style="text;strokeColor=none;align=center;fillColor=none;html=1;verticalAlign=middle;whiteSpace=wrap;rounded=0;labelBackgroundColor=none;fontColor=#1D3557;" parent="Dkx161YVqXsfXfBSNgs8-8" vertex="1">
          <mxGeometry width="137.5" height="30" as="geometry" />
        </mxCell>
        <mxCell id="Dkx161YVqXsfXfBSNgs8-12" value="" style="endArrow=classic;html=1;rounded=0;entryX=0.5;entryY=0;entryDx=0;entryDy=0;exitX=0.5;exitY=1;exitDx=0;exitDy=0;" parent="1" source="Dkx161YVqXsfXfBSNgs8-1" target="Dkx161YVqXsfXfBSNgs8-11" edge="1">
          <mxGeometry width="50" height="50" relative="1" as="geometry">
            <mxPoint x="540" y="1040" as="sourcePoint" />
            <mxPoint x="590" y="990" as="targetPoint" />
          </mxGeometry>
        </mxCell>
        <mxCell id="Dkx161YVqXsfXfBSNgs8-13" value="" style="endArrow=classic;html=1;rounded=0;entryX=0.5;entryY=0;entryDx=0;entryDy=0;exitX=0.5;exitY=1;exitDx=0;exitDy=0;" parent="1" source="Dkx161YVqXsfXfBSNgs8-1" target="Dkx161YVqXsfXfBSNgs8-7" edge="1">
          <mxGeometry width="50" height="50" relative="1" as="geometry">
            <mxPoint x="500" y="1030" as="sourcePoint" />
            <mxPoint x="599" y="1120" as="targetPoint" />
          </mxGeometry>
        </mxCell>
        <mxCell id="Dkx161YVqXsfXfBSNgs8-14" value="" style="endArrow=classic;html=1;rounded=0;exitX=0.25;exitY=1;exitDx=0;exitDy=0;entryX=0;entryY=0;entryDx=0;entryDy=0;" parent="1" source="Dkx161YVqXsfXfBSNgs8-2" target="Dkx161YVqXsfXfBSNgs8-1" edge="1">
          <mxGeometry width="50" height="50" relative="1" as="geometry">
            <mxPoint x="540" y="580" as="sourcePoint" />
            <mxPoint x="590" y="530" as="targetPoint" />
          </mxGeometry>
        </mxCell>
        <mxCell id="Dkx161YVqXsfXfBSNgs8-15" value="" style="endArrow=classic;html=1;rounded=0;exitX=0.943;exitY=0.284;exitDx=0;exitDy=0;exitPerimeter=0;entryX=0;entryY=0.25;entryDx=0;entryDy=0;" parent="1" source="Dkx161YVqXsfXfBSNgs8-1" target="Dkx161YVqXsfXfBSNgs8-3" edge="1">
          <mxGeometry width="50" height="50" relative="1" as="geometry">
            <mxPoint x="540" y="1040" as="sourcePoint" />
            <mxPoint x="590" y="990" as="targetPoint" />
          </mxGeometry>
        </mxCell>
        <mxCell id="Dkx161YVqXsfXfBSNgs8-16" value="" style="endArrow=classic;html=1;rounded=0;exitX=-0.015;exitY=0.661;exitDx=0;exitDy=0;exitPerimeter=0;" parent="1" source="Dkx161YVqXsfXfBSNgs8-3" edge="1">
          <mxGeometry width="50" height="50" relative="1" as="geometry">
            <mxPoint x="540" y="1040" as="sourcePoint" />
            <mxPoint x="620" y="983" as="targetPoint" />
          </mxGeometry>
        </mxCell>
        <mxCell id="Dkx161YVqXsfXfBSNgs8-17" value="" style="endArrow=classic;html=1;rounded=0;exitX=1;exitY=0;exitDx=0;exitDy=0;entryX=0.75;entryY=1;entryDx=0;entryDy=0;" parent="1" source="Dkx161YVqXsfXfBSNgs8-1" target="Dkx161YVqXsfXfBSNgs8-2" edge="1">
          <mxGeometry width="50" height="50" relative="1" as="geometry">
            <mxPoint x="440" y="560" as="sourcePoint" />
            <mxPoint x="630" y="460" as="targetPoint" />
          </mxGeometry>
        </mxCell>
        <mxCell id="Dkx161YVqXsfXfBSNgs8-18" value="Pengizinan penyewaan kamar, waktu penyewaan, lokasi kamar" style="text;html=1;align=center;verticalAlign=middle;resizable=0;points=[];autosize=1;strokeColor=none;fillColor=none;" parent="1" vertex="1">
          <mxGeometry x="635" y="920" width="360" height="30" as="geometry" />
        </mxCell>
        <mxCell id="Dkx161YVqXsfXfBSNgs8-19" value="Pemohonan izin penyewaan kamar, waktu yang diinginkan, lokasi yang diinginkan" style="text;html=1;align=center;verticalAlign=middle;resizable=0;points=[];autosize=1;strokeColor=none;fillColor=none;" parent="1" vertex="1">
          <mxGeometry x="640" y="978" width="460" height="30" as="geometry" />
        </mxCell>
        <mxCell id="Dkx161YVqXsfXfBSNgs8-21" value="perizinan penyewaan kamar, waktu yang ditetapkan dan lokasi yang ditetapkan" style="text;html=1;align=center;verticalAlign=middle;resizable=0;points=[];autosize=1;strokeColor=none;fillColor=none;rotation=90;" parent="1" vertex="1">
          <mxGeometry x="305" y="630" width="440" height="30" as="geometry" />
        </mxCell>
        <mxCell id="tBO-7WroJvDxWqu57qeh-1" value="Sistem pengembalian ruangan" style="ellipse;whiteSpace=wrap;html=1;aspect=fixed;fillColor=#f5f5f5;fontColor=#333333;strokeColor=#666666;" parent="1" vertex="1">
          <mxGeometry x="1490" y="1190" width="100" height="100" as="geometry" />
        </mxCell>
        <mxCell id="tBO-7WroJvDxWqu57qeh-2" value="Admin" style="whiteSpace=wrap;html=1;aspect=fixed;fillColor=#f5f5f5;fontColor=#333333;strokeColor=#666666;" parent="1" vertex="1">
          <mxGeometry x="1510" y="898" width="80" height="80" as="geometry" />
        </mxCell>
        <mxCell id="tBO-7WroJvDxWqu57qeh-3" value="User" style="whiteSpace=wrap;html=1;aspect=fixed;fillColor=#f5f5f5;fontColor=#333333;strokeColor=#666666;" parent="1" vertex="1">
          <mxGeometry x="1780" y="1200" width="80" height="80" as="geometry" />
        </mxCell>
        <mxCell id="tBO-7WroJvDxWqu57qeh-4" value="" style="group;labelBackgroundColor=none;fontColor=#1D3557;" parent="1" vertex="1" connectable="0">
          <mxGeometry x="1380" y="1380" width="137.5" height="30" as="geometry" />
        </mxCell>
        <mxCell id="tBO-7WroJvDxWqu57qeh-5" value="" style="endArrow=none;html=1;rounded=0;labelBackgroundColor=none;strokeColor=#457B9D;fontColor=default;" parent="tBO-7WroJvDxWqu57qeh-4" edge="1">
          <mxGeometry width="50" height="50" relative="1" as="geometry">
            <mxPoint as="sourcePoint" />
            <mxPoint x="137.5" as="targetPoint" />
          </mxGeometry>
        </mxCell>
        <mxCell id="tBO-7WroJvDxWqu57qeh-6" value="" style="endArrow=none;html=1;rounded=0;labelBackgroundColor=none;strokeColor=#457B9D;fontColor=default;" parent="tBO-7WroJvDxWqu57qeh-4" edge="1">
          <mxGeometry width="50" height="50" relative="1" as="geometry">
            <mxPoint y="30" as="sourcePoint" />
            <mxPoint x="137.5" y="30" as="targetPoint" />
          </mxGeometry>
        </mxCell>
        <mxCell id="tBO-7WroJvDxWqu57qeh-7" value="Laporan pengembalian" style="text;strokeColor=none;align=center;fillColor=none;html=1;verticalAlign=middle;whiteSpace=wrap;rounded=0;labelBackgroundColor=none;fontColor=#1D3557;" parent="tBO-7WroJvDxWqu57qeh-4" vertex="1">
          <mxGeometry width="137.5" height="30" as="geometry" />
        </mxCell>
        <mxCell id="tBO-7WroJvDxWqu57qeh-8" value="" style="group;labelBackgroundColor=none;fontColor=#1D3557;" parent="1" vertex="1" connectable="0">
          <mxGeometry x="1570" y="1380" width="137.5" height="30" as="geometry" />
        </mxCell>
        <mxCell id="tBO-7WroJvDxWqu57qeh-9" value="" style="endArrow=none;html=1;rounded=0;labelBackgroundColor=none;strokeColor=#457B9D;fontColor=default;" parent="tBO-7WroJvDxWqu57qeh-8" edge="1">
          <mxGeometry width="50" height="50" relative="1" as="geometry">
            <mxPoint as="sourcePoint" />
            <mxPoint x="137.5" as="targetPoint" />
          </mxGeometry>
        </mxCell>
        <mxCell id="tBO-7WroJvDxWqu57qeh-10" value="" style="endArrow=none;html=1;rounded=0;labelBackgroundColor=none;strokeColor=#457B9D;fontColor=default;" parent="tBO-7WroJvDxWqu57qeh-8" edge="1">
          <mxGeometry width="50" height="50" relative="1" as="geometry">
            <mxPoint y="30" as="sourcePoint" />
            <mxPoint x="137.5" y="30" as="targetPoint" />
          </mxGeometry>
        </mxCell>
        <mxCell id="tBO-7WroJvDxWqu57qeh-11" value="Waktu pengembalian" style="text;strokeColor=none;align=center;fillColor=none;html=1;verticalAlign=middle;whiteSpace=wrap;rounded=0;labelBackgroundColor=none;fontColor=#1D3557;" parent="tBO-7WroJvDxWqu57qeh-8" vertex="1">
          <mxGeometry width="137.5" height="30" as="geometry" />
        </mxCell>
        <mxCell id="tBO-7WroJvDxWqu57qeh-12" value="" style="endArrow=classic;html=1;rounded=0;entryX=0.5;entryY=0;entryDx=0;entryDy=0;exitX=0.5;exitY=1;exitDx=0;exitDy=0;" parent="1" source="tBO-7WroJvDxWqu57qeh-1" target="tBO-7WroJvDxWqu57qeh-11" edge="1">
          <mxGeometry width="50" height="50" relative="1" as="geometry">
            <mxPoint x="1510" y="1310" as="sourcePoint" />
            <mxPoint x="1560" y="1260" as="targetPoint" />
          </mxGeometry>
        </mxCell>
        <mxCell id="tBO-7WroJvDxWqu57qeh-13" value="" style="endArrow=classic;html=1;rounded=0;entryX=0.5;entryY=0;entryDx=0;entryDy=0;exitX=0.5;exitY=1;exitDx=0;exitDy=0;" parent="1" source="tBO-7WroJvDxWqu57qeh-1" target="tBO-7WroJvDxWqu57qeh-7" edge="1">
          <mxGeometry width="50" height="50" relative="1" as="geometry">
            <mxPoint x="1470" y="1300" as="sourcePoint" />
            <mxPoint x="1569" y="1390" as="targetPoint" />
          </mxGeometry>
        </mxCell>
        <mxCell id="tBO-7WroJvDxWqu57qeh-14" value="" style="endArrow=classic;html=1;rounded=0;exitX=0.25;exitY=1;exitDx=0;exitDy=0;entryX=0;entryY=0;entryDx=0;entryDy=0;" parent="1" source="tBO-7WroJvDxWqu57qeh-2" target="tBO-7WroJvDxWqu57qeh-1" edge="1">
          <mxGeometry width="50" height="50" relative="1" as="geometry">
            <mxPoint x="1510" y="850" as="sourcePoint" />
            <mxPoint x="1560" y="800" as="targetPoint" />
          </mxGeometry>
        </mxCell>
        <mxCell id="tBO-7WroJvDxWqu57qeh-15" value="" style="endArrow=classic;html=1;rounded=0;exitX=0.943;exitY=0.284;exitDx=0;exitDy=0;exitPerimeter=0;entryX=0;entryY=0.25;entryDx=0;entryDy=0;" parent="1" source="tBO-7WroJvDxWqu57qeh-1" target="tBO-7WroJvDxWqu57qeh-3" edge="1">
          <mxGeometry width="50" height="50" relative="1" as="geometry">
            <mxPoint x="1510" y="1310" as="sourcePoint" />
            <mxPoint x="1560" y="1260" as="targetPoint" />
          </mxGeometry>
        </mxCell>
        <mxCell id="tBO-7WroJvDxWqu57qeh-16" value="" style="endArrow=classic;html=1;rounded=0;exitX=-0.015;exitY=0.661;exitDx=0;exitDy=0;exitPerimeter=0;" parent="1" source="tBO-7WroJvDxWqu57qeh-3" edge="1">
          <mxGeometry width="50" height="50" relative="1" as="geometry">
            <mxPoint x="1510" y="1310" as="sourcePoint" />
            <mxPoint x="1590" y="1253" as="targetPoint" />
          </mxGeometry>
        </mxCell>
        <mxCell id="tBO-7WroJvDxWqu57qeh-17" value="" style="endArrow=classic;html=1;rounded=0;exitX=1;exitY=0;exitDx=0;exitDy=0;entryX=0.75;entryY=1;entryDx=0;entryDy=0;" parent="1" source="tBO-7WroJvDxWqu57qeh-1" target="tBO-7WroJvDxWqu57qeh-2" edge="1">
          <mxGeometry width="50" height="50" relative="1" as="geometry">
            <mxPoint x="1410" y="830" as="sourcePoint" />
            <mxPoint x="1600" y="730" as="targetPoint" />
          </mxGeometry>
        </mxCell>
        <mxCell id="tBO-7WroJvDxWqu57qeh-19" value="mengembalikan ruangan" style="text;html=1;align=center;verticalAlign=middle;resizable=0;points=[];autosize=1;strokeColor=none;fillColor=none;" parent="1" vertex="1">
          <mxGeometry x="1600" y="1250" width="160" height="30" as="geometry" />
        </mxCell>
        <mxCell id="tBO-7WroJvDxWqu57qeh-20" value="menerima pengembalian ruangan&amp;nbsp;" style="text;html=1;align=center;verticalAlign=middle;resizable=0;points=[];autosize=1;strokeColor=none;fillColor=none;rotation=90;" parent="1" vertex="1">
          <mxGeometry x="1490" y="1070" width="210" height="30" as="geometry" />
        </mxCell>
      </root>
    </mxGraphModel>
  </diagram>
  <diagram id="BjBvxkuhfOxg6_fiiOqw" name="USECASE">
    <mxGraphModel dx="1214" dy="757" grid="1" gridSize="10" guides="1" tooltips="1" connect="1" arrows="1" fold="1" page="1" pageScale="1" pageWidth="2336" pageHeight="1654" math="0" shadow="0">
      <root>
        <mxCell id="0" />
        <mxCell id="1" parent="0" />
        <mxCell id="iukXrNf1v3j7CaVso0Z7-1" value="&lt;p style=&quot;margin:0px;margin-top:4px;text-align:center;&quot;&gt;&lt;b style=&quot;line-height: 140%;&quot;&gt;Sistem peminjaman ruangan&amp;nbsp;&lt;/b&gt;&lt;/p&gt;" style="verticalAlign=top;align=left;overflow=fill;html=1;whiteSpace=wrap;" parent="1" vertex="1">
          <mxGeometry x="650" y="210" width="220" height="940" as="geometry" />
        </mxCell>
        <mxCell id="iukXrNf1v3j7CaVso0Z7-2" style="edgeStyle=orthogonalEdgeStyle;rounded=0;orthogonalLoop=1;jettySize=auto;html=1;exitX=0.5;exitY=0.5;exitDx=0;exitDy=0;exitPerimeter=0;entryX=0;entryY=0.5;entryDx=0;entryDy=0;" parent="1" source="iukXrNf1v3j7CaVso0Z7-7" target="iukXrNf1v3j7CaVso0Z7-17" edge="1">
          <mxGeometry relative="1" as="geometry" />
        </mxCell>
        <mxCell id="iukXrNf1v3j7CaVso0Z7-3" style="edgeStyle=orthogonalEdgeStyle;rounded=0;orthogonalLoop=1;jettySize=auto;html=1;exitX=0.5;exitY=0.5;exitDx=0;exitDy=0;exitPerimeter=0;entryX=0;entryY=0.5;entryDx=0;entryDy=0;" parent="1" source="iukXrNf1v3j7CaVso0Z7-7" target="iukXrNf1v3j7CaVso0Z7-16" edge="1">
          <mxGeometry relative="1" as="geometry" />
        </mxCell>
        <mxCell id="iukXrNf1v3j7CaVso0Z7-4" style="edgeStyle=orthogonalEdgeStyle;rounded=0;orthogonalLoop=1;jettySize=auto;html=1;exitX=0.5;exitY=0.5;exitDx=0;exitDy=0;exitPerimeter=0;entryX=0;entryY=0.5;entryDx=0;entryDy=0;" parent="1" source="iukXrNf1v3j7CaVso0Z7-7" target="iukXrNf1v3j7CaVso0Z7-14" edge="1">
          <mxGeometry relative="1" as="geometry" />
        </mxCell>
        <mxCell id="iukXrNf1v3j7CaVso0Z7-5" style="edgeStyle=orthogonalEdgeStyle;rounded=0;orthogonalLoop=1;jettySize=auto;html=1;exitX=0.5;exitY=0.5;exitDx=0;exitDy=0;exitPerimeter=0;" parent="1" source="iukXrNf1v3j7CaVso0Z7-7" target="iukXrNf1v3j7CaVso0Z7-15" edge="1">
          <mxGeometry relative="1" as="geometry" />
        </mxCell>
        <mxCell id="iukXrNf1v3j7CaVso0Z7-6" style="edgeStyle=orthogonalEdgeStyle;rounded=0;orthogonalLoop=1;jettySize=auto;html=1;exitX=0.5;exitY=0.5;exitDx=0;exitDy=0;exitPerimeter=0;entryX=0;entryY=0.5;entryDx=0;entryDy=0;" parent="1" source="iukXrNf1v3j7CaVso0Z7-7" target="iukXrNf1v3j7CaVso0Z7-18" edge="1">
          <mxGeometry relative="1" as="geometry" />
        </mxCell>
        <mxCell id="3_vZ2BIvAni8YLIaOUBq-1" value="" style="edgeStyle=orthogonalEdgeStyle;rounded=0;orthogonalLoop=1;jettySize=auto;html=1;entryX=0;entryY=0.5;entryDx=0;entryDy=0;" parent="1" source="iukXrNf1v3j7CaVso0Z7-7" target="1ahNIA_NgIuT2vJ0QEA0-16" edge="1">
          <mxGeometry relative="1" as="geometry" />
        </mxCell>
        <mxCell id="iukXrNf1v3j7CaVso0Z7-7" value="User" style="shape=umlActor;verticalLabelPosition=bottom;verticalAlign=top;html=1;outlineConnect=0;" parent="1" vertex="1">
          <mxGeometry x="530" y="555" width="30" height="60" as="geometry" />
        </mxCell>
        <mxCell id="iukXrNf1v3j7CaVso0Z7-8" style="edgeStyle=orthogonalEdgeStyle;rounded=0;orthogonalLoop=1;jettySize=auto;html=1;exitX=0.5;exitY=0.5;exitDx=0;exitDy=0;exitPerimeter=0;entryX=1;entryY=0.5;entryDx=0;entryDy=0;fillColor=#f5f5f5;strokeColor=#666666;" parent="1" source="iukXrNf1v3j7CaVso0Z7-13" target="iukXrNf1v3j7CaVso0Z7-20" edge="1">
          <mxGeometry relative="1" as="geometry" />
        </mxCell>
        <mxCell id="iukXrNf1v3j7CaVso0Z7-9" style="edgeStyle=orthogonalEdgeStyle;rounded=0;orthogonalLoop=1;jettySize=auto;html=1;exitX=0.5;exitY=0.5;exitDx=0;exitDy=0;exitPerimeter=0;entryX=1;entryY=0.5;entryDx=0;entryDy=0;fillColor=#f5f5f5;strokeColor=#666666;" parent="1" source="iukXrNf1v3j7CaVso0Z7-13" target="iukXrNf1v3j7CaVso0Z7-19" edge="1">
          <mxGeometry relative="1" as="geometry" />
        </mxCell>
        <mxCell id="iukXrNf1v3j7CaVso0Z7-10" style="edgeStyle=orthogonalEdgeStyle;rounded=0;orthogonalLoop=1;jettySize=auto;html=1;exitX=0.5;exitY=0.5;exitDx=0;exitDy=0;exitPerimeter=0;entryX=1;entryY=0.5;entryDx=0;entryDy=0;fillColor=#f5f5f5;strokeColor=#666666;" parent="1" source="iukXrNf1v3j7CaVso0Z7-13" target="iukXrNf1v3j7CaVso0Z7-21" edge="1">
          <mxGeometry relative="1" as="geometry" />
        </mxCell>
        <mxCell id="iukXrNf1v3j7CaVso0Z7-11" style="edgeStyle=orthogonalEdgeStyle;rounded=0;orthogonalLoop=1;jettySize=auto;html=1;exitX=0.5;exitY=0.5;exitDx=0;exitDy=0;exitPerimeter=0;entryX=1;entryY=0.5;entryDx=0;entryDy=0;fillColor=#f5f5f5;strokeColor=#666666;" parent="1" source="iukXrNf1v3j7CaVso0Z7-13" target="iukXrNf1v3j7CaVso0Z7-18" edge="1">
          <mxGeometry relative="1" as="geometry" />
        </mxCell>
        <mxCell id="iukXrNf1v3j7CaVso0Z7-12" style="edgeStyle=orthogonalEdgeStyle;rounded=0;orthogonalLoop=1;jettySize=auto;html=1;exitX=0.5;exitY=0.5;exitDx=0;exitDy=0;exitPerimeter=0;entryX=1;entryY=0.5;entryDx=0;entryDy=0;fillColor=#f5f5f5;strokeColor=#666666;" parent="1" source="iukXrNf1v3j7CaVso0Z7-13" target="iukXrNf1v3j7CaVso0Z7-17" edge="1">
          <mxGeometry relative="1" as="geometry" />
        </mxCell>
        <mxCell id="iukXrNf1v3j7CaVso0Z7-13" value="Admin" style="shape=umlActor;verticalLabelPosition=bottom;verticalAlign=top;html=1;outlineConnect=0;fillColor=#f5f5f5;fontColor=#333333;strokeColor=#666666;" parent="1" vertex="1">
          <mxGeometry x="970" y="555" width="30" height="60" as="geometry" />
        </mxCell>
        <mxCell id="iukXrNf1v3j7CaVso0Z7-14" value="permintaan waktu dan tanggal&amp;nbsp;" style="ellipse;whiteSpace=wrap;html=1;fillColor=#f5f5f5;fontColor=#333333;strokeColor=#666666;" parent="1" vertex="1">
          <mxGeometry x="690" y="420" width="120" height="80" as="geometry" />
        </mxCell>
        <mxCell id="iukXrNf1v3j7CaVso0Z7-15" value="permintaan tempat" style="ellipse;whiteSpace=wrap;html=1;fillColor=#f5f5f5;fontColor=#333333;strokeColor=#666666;" parent="1" vertex="1">
          <mxGeometry x="690" y="510" width="120" height="80" as="geometry" />
        </mxCell>
        <mxCell id="iukXrNf1v3j7CaVso0Z7-16" value="permintaan izin penyewaan kamar" style="ellipse;whiteSpace=wrap;html=1;fillColor=#f5f5f5;fontColor=#333333;strokeColor=#666666;" parent="1" vertex="1">
          <mxGeometry x="690" y="330" width="120" height="80" as="geometry" />
        </mxCell>
        <mxCell id="iukXrNf1v3j7CaVso0Z7-17" value="Login" style="ellipse;whiteSpace=wrap;html=1;fillColor=#f5f5f5;fontColor=#333333;strokeColor=#666666;" parent="1" vertex="1">
          <mxGeometry x="690" y="240" width="120" height="80" as="geometry" />
        </mxCell>
        <mxCell id="iukXrNf1v3j7CaVso0Z7-18" value="Logout" style="ellipse;whiteSpace=wrap;html=1;fillColor=#f5f5f5;fontColor=#333333;strokeColor=#666666;" parent="1" vertex="1">
          <mxGeometry x="690" y="1060" width="120" height="80" as="geometry" />
        </mxCell>
        <mxCell id="iukXrNf1v3j7CaVso0Z7-19" value="pemberian izin wkatu dan tanggal" style="ellipse;whiteSpace=wrap;html=1;fillColor=#f5f5f5;fontColor=#333333;strokeColor=#666666;" parent="1" vertex="1">
          <mxGeometry x="690" y="880" width="120" height="80" as="geometry" />
        </mxCell>
        <mxCell id="iukXrNf1v3j7CaVso0Z7-20" value="pemberian izin penyewaan kamar" style="ellipse;whiteSpace=wrap;html=1;fillColor=#f5f5f5;fontColor=#333333;strokeColor=#666666;" parent="1" vertex="1">
          <mxGeometry x="690" y="790" width="120" height="80" as="geometry" />
        </mxCell>
        <mxCell id="iukXrNf1v3j7CaVso0Z7-21" value="perizinan tempat" style="ellipse;whiteSpace=wrap;html=1;fillColor=#f5f5f5;fontColor=#333333;strokeColor=#666666;" parent="1" vertex="1">
          <mxGeometry x="690" y="970" width="120" height="80" as="geometry" />
        </mxCell>
        <mxCell id="1ahNIA_NgIuT2vJ0QEA0-16" value="pengembalian penyewaan kamar&amp;nbsp;" style="ellipse;whiteSpace=wrap;html=1;fillColor=#f5f5f5;fontColor=#333333;strokeColor=#666666;" parent="1" vertex="1">
          <mxGeometry x="690" y="600" width="120" height="80" as="geometry" />
        </mxCell>
        <mxCell id="1ahNIA_NgIuT2vJ0QEA0-20" value="menerima pengembalian penyewaan kamar" style="ellipse;whiteSpace=wrap;html=1;fillColor=#f5f5f5;fontColor=#333333;strokeColor=#666666;" parent="1" vertex="1">
          <mxGeometry x="690" y="700" width="120" height="80" as="geometry" />
        </mxCell>
        <mxCell id="3_vZ2BIvAni8YLIaOUBq-2" value="" style="endArrow=classic;html=1;rounded=0;exitX=0.5;exitY=0.5;exitDx=0;exitDy=0;exitPerimeter=0;entryX=1;entryY=0.5;entryDx=0;entryDy=0;" parent="1" source="iukXrNf1v3j7CaVso0Z7-13" target="1ahNIA_NgIuT2vJ0QEA0-20" edge="1">
          <mxGeometry width="50" height="50" relative="1" as="geometry">
            <mxPoint x="650" y="870" as="sourcePoint" />
            <mxPoint x="700" y="820" as="targetPoint" />
            <Array as="points">
              <mxPoint x="890" y="585" />
              <mxPoint x="890" y="740" />
            </Array>
          </mxGeometry>
        </mxCell>
      </root>
    </mxGraphModel>
  </diagram>
  <diagram id="mnCQ953Rd3xaXQm2Npkm" name="FLOWCHART">
    <mxGraphModel dx="837" dy="522" grid="1" gridSize="10" guides="1" tooltips="1" connect="1" arrows="1" fold="1" page="1" pageScale="1" pageWidth="2336" pageHeight="1654" math="0" shadow="0">
      <root>
        <mxCell id="0" />
        <mxCell id="1" parent="0" />
        <mxCell id="ua6RnQ2V3UVi9ifkBvw5-1" value="Mulai" style="strokeWidth=2;html=1;shape=mxgraph.flowchart.start_1;whiteSpace=wrap;fillColor=#f5f5f5;fontColor=#333333;strokeColor=#666666;" parent="1" vertex="1">
          <mxGeometry x="342.5" y="250" width="100" height="60" as="geometry" />
        </mxCell>
        <mxCell id="ua6RnQ2V3UVi9ifkBvw5-2" value="" style="endArrow=classic;html=1;rounded=0;exitX=0.5;exitY=1;exitDx=0;exitDy=0;exitPerimeter=0;fillColor=#f5f5f5;strokeColor=#666666;" parent="1" source="ua6RnQ2V3UVi9ifkBvw5-1" edge="1">
          <mxGeometry width="50" height="50" relative="1" as="geometry">
            <mxPoint x="412.5" y="610" as="sourcePoint" />
            <mxPoint x="392.5" y="330" as="targetPoint" />
          </mxGeometry>
        </mxCell>
        <mxCell id="ua6RnQ2V3UVi9ifkBvw5-3" value="Apakah sudah memiliki akun&amp;nbsp;" style="strokeWidth=2;html=1;shape=mxgraph.flowchart.decision;whiteSpace=wrap;fillColor=#f5f5f5;fontColor=#333333;strokeColor=#666666;" parent="1" vertex="1">
          <mxGeometry x="337.5" y="430" width="110" height="110" as="geometry" />
        </mxCell>
        <mxCell id="ua6RnQ2V3UVi9ifkBvw5-4" value="" style="endArrow=classic;html=1;rounded=0;exitX=0.5;exitY=1;exitDx=0;exitDy=0;fillColor=#f5f5f5;strokeColor=#666666;" parent="1" edge="1">
          <mxGeometry width="50" height="50" relative="1" as="geometry">
            <mxPoint x="392.5" y="390" as="sourcePoint" />
            <mxPoint x="392.5" y="430" as="targetPoint" />
          </mxGeometry>
        </mxCell>
        <mxCell id="ua6RnQ2V3UVi9ifkBvw5-5" value="Login" style="shape=parallelogram;html=1;strokeWidth=2;perimeter=parallelogramPerimeter;whiteSpace=wrap;rounded=1;arcSize=12;size=0.23;fillColor=#f5f5f5;fontColor=#333333;strokeColor=#666666;" parent="1" vertex="1">
          <mxGeometry x="332.5" y="330" width="120" height="60" as="geometry" />
        </mxCell>
        <mxCell id="ua6RnQ2V3UVi9ifkBvw5-6" value="" style="endArrow=classic;html=1;rounded=0;exitX=0.5;exitY=1;exitDx=0;exitDy=0;exitPerimeter=0;entryX=0.5;entryY=0;entryDx=0;entryDy=0;fillColor=#f5f5f5;strokeColor=#666666;" parent="1" source="ua6RnQ2V3UVi9ifkBvw5-3" target="ua6RnQ2V3UVi9ifkBvw5-11" edge="1">
          <mxGeometry width="50" height="50" relative="1" as="geometry">
            <mxPoint x="452.5" y="610" as="sourcePoint" />
            <mxPoint x="392.5" y="580" as="targetPoint" />
          </mxGeometry>
        </mxCell>
        <mxCell id="ua6RnQ2V3UVi9ifkBvw5-7" value="" style="endArrow=classic;html=1;rounded=0;exitX=1;exitY=0.5;exitDx=0;exitDy=0;exitPerimeter=0;entryX=0;entryY=0.5;entryDx=0;entryDy=0;fillColor=#f5f5f5;strokeColor=#666666;" parent="1" source="ua6RnQ2V3UVi9ifkBvw5-3" target="ua6RnQ2V3UVi9ifkBvw5-8" edge="1">
          <mxGeometry width="50" height="50" relative="1" as="geometry">
            <mxPoint x="492.5" y="500" as="sourcePoint" />
            <mxPoint x="492.5" y="485" as="targetPoint" />
          </mxGeometry>
        </mxCell>
        <mxCell id="ua6RnQ2V3UVi9ifkBvw5-8" value="register email dan password" style="shape=parallelogram;html=1;strokeWidth=2;perimeter=parallelogramPerimeter;whiteSpace=wrap;rounded=1;arcSize=12;size=0.23;fillColor=#f5f5f5;fontColor=#333333;strokeColor=#666666;" parent="1" vertex="1">
          <mxGeometry x="482.5" y="455" width="140" height="60" as="geometry" />
        </mxCell>
        <mxCell id="ua6RnQ2V3UVi9ifkBvw5-9" value="No&amp;nbsp;" style="text;html=1;align=center;verticalAlign=middle;resizable=0;points=[];autosize=1;" parent="1" vertex="1">
          <mxGeometry x="442.5" y="460" width="40" height="30" as="geometry" />
        </mxCell>
        <mxCell id="ua6RnQ2V3UVi9ifkBvw5-10" value="Yes" style="text;html=1;align=center;verticalAlign=middle;resizable=0;points=[];autosize=1;" parent="1" vertex="1">
          <mxGeometry x="352.5" y="540" width="40" height="30" as="geometry" />
        </mxCell>
        <mxCell id="ua6RnQ2V3UVi9ifkBvw5-11" value="Input password&lt;br&gt;dan username" style="shape=parallelogram;html=1;strokeWidth=2;perimeter=parallelogramPerimeter;whiteSpace=wrap;rounded=1;arcSize=12;size=0.23;fillColor=#f5f5f5;fontColor=#333333;strokeColor=#666666;" parent="1" vertex="1">
          <mxGeometry x="330" y="580" width="125" height="60" as="geometry" />
        </mxCell>
        <mxCell id="ua6RnQ2V3UVi9ifkBvw5-12" value="" style="endArrow=classic;html=1;rounded=0;exitX=1;exitY=0.5;exitDx=0;exitDy=0;entryX=1;entryY=0.5;entryDx=0;entryDy=0;fillColor=#f5f5f5;strokeColor=#666666;" parent="1" source="ua6RnQ2V3UVi9ifkBvw5-8" target="ua6RnQ2V3UVi9ifkBvw5-5" edge="1">
          <mxGeometry width="50" height="50" relative="1" as="geometry">
            <mxPoint x="412.5" y="610" as="sourcePoint" />
            <mxPoint x="462.5" y="560" as="targetPoint" />
            <Array as="points">
              <mxPoint x="692.5" y="485" />
              <mxPoint x="692.5" y="360" />
            </Array>
          </mxGeometry>
        </mxCell>
        <mxCell id="ua6RnQ2V3UVi9ifkBvw5-13" value="" style="endArrow=classic;html=1;rounded=0;exitX=0.5;exitY=1;exitDx=0;exitDy=0;fillColor=#f5f5f5;strokeColor=#666666;" parent="1" source="ua6RnQ2V3UVi9ifkBvw5-11" edge="1">
          <mxGeometry width="50" height="50" relative="1" as="geometry">
            <mxPoint x="412.5" y="610" as="sourcePoint" />
            <mxPoint x="392.5" y="690" as="targetPoint" />
          </mxGeometry>
        </mxCell>
        <mxCell id="m44FBqQ0kkHXFcUS6Irk-5" value="" style="edgeStyle=orthogonalEdgeStyle;rounded=0;orthogonalLoop=1;jettySize=auto;html=1;" parent="1" source="ua6RnQ2V3UVi9ifkBvw5-14" target="m44FBqQ0kkHXFcUS6Irk-4" edge="1">
          <mxGeometry relative="1" as="geometry" />
        </mxCell>
        <mxCell id="ua6RnQ2V3UVi9ifkBvw5-14" value="Apakah password&amp;nbsp;dan email sesuai ?" style="strokeWidth=2;html=1;shape=mxgraph.flowchart.decision;whiteSpace=wrap;fillColor=#f5f5f5;fontColor=#333333;strokeColor=#666666;" parent="1" vertex="1">
          <mxGeometry x="337.5" y="690" width="110" height="110" as="geometry" />
        </mxCell>
        <mxCell id="ua6RnQ2V3UVi9ifkBvw5-15" value="" style="endArrow=none;html=1;rounded=0;exitX=1;exitY=0.5;exitDx=0;exitDy=0;exitPerimeter=0;fillColor=#f5f5f5;strokeColor=#666666;" parent="1" source="ua6RnQ2V3UVi9ifkBvw5-14" edge="1">
          <mxGeometry width="50" height="50" relative="1" as="geometry">
            <mxPoint x="412.5" y="610" as="sourcePoint" />
            <mxPoint x="692.5" y="480" as="targetPoint" />
            <Array as="points">
              <mxPoint x="692.5" y="740" />
            </Array>
          </mxGeometry>
        </mxCell>
        <mxCell id="ua6RnQ2V3UVi9ifkBvw5-16" value="No" style="text;html=1;align=center;verticalAlign=middle;resizable=0;points=[];autosize=1;" parent="1" vertex="1">
          <mxGeometry x="432.5" y="720" width="40" height="30" as="geometry" />
        </mxCell>
        <mxCell id="m44FBqQ0kkHXFcUS6Irk-13" value="" style="edgeStyle=orthogonalEdgeStyle;rounded=0;orthogonalLoop=1;jettySize=auto;html=1;" parent="1" source="m44FBqQ0kkHXFcUS6Irk-4" target="m44FBqQ0kkHXFcUS6Irk-12" edge="1">
          <mxGeometry relative="1" as="geometry" />
        </mxCell>
        <mxCell id="m44FBqQ0kkHXFcUS6Irk-4" value="halaman:&lt;br&gt;dashboard&lt;br&gt;persetujuan&lt;br&gt;crud" style="shape=process;whiteSpace=wrap;html=1;backgroundOutline=1;fillColor=#f5f5f5;fontColor=#333333;strokeColor=#666666;" parent="1" vertex="1">
          <mxGeometry x="333.5" y="840" width="120" height="60" as="geometry" />
        </mxCell>
        <mxCell id="m44FBqQ0kkHXFcUS6Irk-7" value="" style="edgeStyle=orthogonalEdgeStyle;rounded=0;orthogonalLoop=1;jettySize=auto;html=1;" parent="1" source="m44FBqQ0kkHXFcUS6Irk-6" target="m44FBqQ0kkHXFcUS6Irk-4" edge="1">
          <mxGeometry relative="1" as="geometry" />
        </mxCell>
        <mxCell id="m44FBqQ0kkHXFcUS6Irk-6" value="a,b,c,d" style="ellipse;whiteSpace=wrap;html=1;aspect=fixed;fillColor=#f5f5f5;fontColor=#333333;strokeColor=#666666;" parent="1" vertex="1">
          <mxGeometry x="490" y="845" width="50" height="50" as="geometry" />
        </mxCell>
        <mxCell id="m44FBqQ0kkHXFcUS6Irk-15" value="" style="edgeStyle=orthogonalEdgeStyle;rounded=0;orthogonalLoop=1;jettySize=auto;html=1;fillColor=#f5f5f5;strokeColor=#666666;" parent="1" source="m44FBqQ0kkHXFcUS6Irk-9" target="m44FBqQ0kkHXFcUS6Irk-11" edge="1">
          <mxGeometry relative="1" as="geometry" />
        </mxCell>
        <mxCell id="m44FBqQ0kkHXFcUS6Irk-27" value="" style="edgeStyle=orthogonalEdgeStyle;rounded=0;orthogonalLoop=1;jettySize=auto;html=1;" parent="1" source="m44FBqQ0kkHXFcUS6Irk-9" target="m44FBqQ0kkHXFcUS6Irk-26" edge="1">
          <mxGeometry relative="1" as="geometry" />
        </mxCell>
        <mxCell id="m44FBqQ0kkHXFcUS6Irk-9" value="crud" style="rhombus;whiteSpace=wrap;html=1;fillColor=#f5f5f5;fontColor=#333333;strokeColor=#666666;" parent="1" vertex="1">
          <mxGeometry x="353.5" y="1090" width="80" height="80" as="geometry" />
        </mxCell>
        <mxCell id="m44FBqQ0kkHXFcUS6Irk-25" value="" style="edgeStyle=orthogonalEdgeStyle;rounded=0;orthogonalLoop=1;jettySize=auto;html=1;" parent="1" source="m44FBqQ0kkHXFcUS6Irk-11" target="m44FBqQ0kkHXFcUS6Irk-24" edge="1">
          <mxGeometry relative="1" as="geometry" />
        </mxCell>
        <mxCell id="z9iDMmw1W1BYFaa8jMhb-2" value="" style="edgeStyle=orthogonalEdgeStyle;rounded=0;orthogonalLoop=1;jettySize=auto;html=1;" edge="1" parent="1" source="m44FBqQ0kkHXFcUS6Irk-11" target="z9iDMmw1W1BYFaa8jMhb-1">
          <mxGeometry relative="1" as="geometry" />
        </mxCell>
        <mxCell id="m44FBqQ0kkHXFcUS6Irk-11" value="Peminjaman" style="rhombus;whiteSpace=wrap;html=1;fillColor=#f5f5f5;fontColor=#333333;strokeColor=#666666;" parent="1" vertex="1">
          <mxGeometry x="353.5" y="1220" width="80" height="80" as="geometry" />
        </mxCell>
        <mxCell id="m44FBqQ0kkHXFcUS6Irk-14" value="" style="edgeStyle=orthogonalEdgeStyle;rounded=0;orthogonalLoop=1;jettySize=auto;html=1;fillColor=#f5f5f5;strokeColor=#666666;" parent="1" source="m44FBqQ0kkHXFcUS6Irk-12" target="m44FBqQ0kkHXFcUS6Irk-9" edge="1">
          <mxGeometry relative="1" as="geometry" />
        </mxCell>
        <mxCell id="m44FBqQ0kkHXFcUS6Irk-17" value="" style="edgeStyle=orthogonalEdgeStyle;rounded=0;orthogonalLoop=1;jettySize=auto;html=1;" parent="1" source="m44FBqQ0kkHXFcUS6Irk-12" target="m44FBqQ0kkHXFcUS6Irk-16" edge="1">
          <mxGeometry relative="1" as="geometry" />
        </mxCell>
        <mxCell id="m44FBqQ0kkHXFcUS6Irk-12" value="dashboard" style="rhombus;whiteSpace=wrap;html=1;fillColor=#f5f5f5;fontColor=#333333;strokeColor=#666666;" parent="1" vertex="1">
          <mxGeometry x="353.5" y="960" width="80" height="80" as="geometry" />
        </mxCell>
        <mxCell id="m44FBqQ0kkHXFcUS6Irk-19" value="" style="edgeStyle=orthogonalEdgeStyle;rounded=0;orthogonalLoop=1;jettySize=auto;html=1;" parent="1" source="m44FBqQ0kkHXFcUS6Irk-16" target="m44FBqQ0kkHXFcUS6Irk-18" edge="1">
          <mxGeometry relative="1" as="geometry" />
        </mxCell>
        <mxCell id="m44FBqQ0kkHXFcUS6Irk-16" value="halaman dashboard" style="rounded=0;whiteSpace=wrap;html=1;fillColor=#f5f5f5;fontColor=#333333;strokeColor=#666666;" parent="1" vertex="1">
          <mxGeometry x="482.5" y="970" width="120" height="60" as="geometry" />
        </mxCell>
        <mxCell id="m44FBqQ0kkHXFcUS6Irk-18" value="a" style="ellipse;whiteSpace=wrap;html=1;aspect=fixed;fillColor=#f5f5f5;fontColor=#333333;strokeColor=#666666;" parent="1" vertex="1">
          <mxGeometry x="640" y="975" width="50" height="50" as="geometry" />
        </mxCell>
        <mxCell id="m44FBqQ0kkHXFcUS6Irk-20" value="Yes" style="text;html=1;align=center;verticalAlign=middle;resizable=0;points=[];autosize=1;strokeColor=none;fillColor=none;" parent="1" vertex="1">
          <mxGeometry x="432.5" y="970" width="40" height="30" as="geometry" />
        </mxCell>
        <mxCell id="m44FBqQ0kkHXFcUS6Irk-21" value="No" style="text;html=1;align=center;verticalAlign=middle;resizable=0;points=[];autosize=1;strokeColor=none;fillColor=none;" parent="1" vertex="1">
          <mxGeometry x="393.5" y="1040" width="40" height="30" as="geometry" />
        </mxCell>
        <mxCell id="m44FBqQ0kkHXFcUS6Irk-22" value="Yes" style="text;html=1;align=center;verticalAlign=middle;resizable=0;points=[];autosize=1;strokeColor=none;fillColor=none;" parent="1" vertex="1">
          <mxGeometry x="415" y="1220" width="40" height="30" as="geometry" />
        </mxCell>
        <mxCell id="m44FBqQ0kkHXFcUS6Irk-40" value="" style="edgeStyle=orthogonalEdgeStyle;rounded=0;orthogonalLoop=1;jettySize=auto;html=1;" parent="1" source="m44FBqQ0kkHXFcUS6Irk-23" target="m44FBqQ0kkHXFcUS6Irk-39" edge="1">
          <mxGeometry relative="1" as="geometry" />
        </mxCell>
        <mxCell id="m44FBqQ0kkHXFcUS6Irk-23" value="logout" style="rounded=0;whiteSpace=wrap;html=1;fillColor=#f5f5f5;fontColor=#333333;strokeColor=#666666;" parent="1" vertex="1">
          <mxGeometry x="180" y="1330" width="120" height="60" as="geometry" />
        </mxCell>
        <mxCell id="m44FBqQ0kkHXFcUS6Irk-32" value="" style="edgeStyle=orthogonalEdgeStyle;rounded=0;orthogonalLoop=1;jettySize=auto;html=1;" parent="1" source="m44FBqQ0kkHXFcUS6Irk-24" target="m44FBqQ0kkHXFcUS6Irk-31" edge="1">
          <mxGeometry relative="1" as="geometry" />
        </mxCell>
        <mxCell id="m44FBqQ0kkHXFcUS6Irk-24" value="halaman persetujuan pengembalian" style="rounded=0;whiteSpace=wrap;html=1;fillColor=#f5f5f5;fontColor=#333333;strokeColor=#666666;" parent="1" vertex="1">
          <mxGeometry x="460" y="1230" width="120" height="60" as="geometry" />
        </mxCell>
        <mxCell id="m44FBqQ0kkHXFcUS6Irk-30" value="" style="edgeStyle=orthogonalEdgeStyle;rounded=0;orthogonalLoop=1;jettySize=auto;html=1;" parent="1" source="m44FBqQ0kkHXFcUS6Irk-26" target="m44FBqQ0kkHXFcUS6Irk-29" edge="1">
          <mxGeometry relative="1" as="geometry" />
        </mxCell>
        <mxCell id="m44FBqQ0kkHXFcUS6Irk-26" value="halaman crud" style="rounded=0;whiteSpace=wrap;html=1;fillColor=#f5f5f5;fontColor=#333333;strokeColor=#666666;" parent="1" vertex="1">
          <mxGeometry x="470" y="1100" width="120" height="60" as="geometry" />
        </mxCell>
        <mxCell id="m44FBqQ0kkHXFcUS6Irk-29" value="b" style="ellipse;whiteSpace=wrap;html=1;aspect=fixed;fillColor=#f5f5f5;fontColor=#333333;strokeColor=#666666;" parent="1" vertex="1">
          <mxGeometry x="630" y="1105" width="50" height="50" as="geometry" />
        </mxCell>
        <mxCell id="m44FBqQ0kkHXFcUS6Irk-31" value="c" style="ellipse;whiteSpace=wrap;html=1;aspect=fixed;fillColor=#f5f5f5;fontColor=#333333;strokeColor=#666666;" parent="1" vertex="1">
          <mxGeometry x="622.5" y="1235" width="50" height="50" as="geometry" />
        </mxCell>
        <mxCell id="m44FBqQ0kkHXFcUS6Irk-37" value="Yes" style="text;html=1;align=center;verticalAlign=middle;resizable=0;points=[];autosize=1;strokeColor=none;fillColor=none;" parent="1" vertex="1">
          <mxGeometry x="420" y="1098" width="40" height="30" as="geometry" />
        </mxCell>
        <mxCell id="m44FBqQ0kkHXFcUS6Irk-38" value="No" style="text;html=1;align=center;verticalAlign=middle;resizable=0;points=[];autosize=1;strokeColor=none;fillColor=none;" parent="1" vertex="1">
          <mxGeometry x="390" y="1168" width="40" height="30" as="geometry" />
        </mxCell>
        <mxCell id="m44FBqQ0kkHXFcUS6Irk-39" value="Berhenti" style="strokeWidth=2;html=1;shape=mxgraph.flowchart.start_1;whiteSpace=wrap;fillColor=#f5f5f5;fontColor=#333333;strokeColor=#666666;" parent="1" vertex="1">
          <mxGeometry x="190" y="1410" width="100" height="60" as="geometry" />
        </mxCell>
        <mxCell id="m44FBqQ0kkHXFcUS6Irk-42" value="Mulai" style="strokeWidth=2;html=1;shape=mxgraph.flowchart.start_1;whiteSpace=wrap;fillColor=#f5f5f5;fontColor=#333333;strokeColor=#666666;" parent="1" vertex="1">
          <mxGeometry x="1282.5" y="270" width="100" height="60" as="geometry" />
        </mxCell>
        <mxCell id="m44FBqQ0kkHXFcUS6Irk-43" value="" style="endArrow=classic;html=1;rounded=0;exitX=0.5;exitY=1;exitDx=0;exitDy=0;exitPerimeter=0;fillColor=#f5f5f5;strokeColor=#666666;" parent="1" source="m44FBqQ0kkHXFcUS6Irk-42" edge="1">
          <mxGeometry width="50" height="50" relative="1" as="geometry">
            <mxPoint x="1352.5" y="630" as="sourcePoint" />
            <mxPoint x="1332.5" y="350" as="targetPoint" />
          </mxGeometry>
        </mxCell>
        <mxCell id="m44FBqQ0kkHXFcUS6Irk-44" value="Apakah sudah memiliki akun&amp;nbsp;" style="strokeWidth=2;html=1;shape=mxgraph.flowchart.decision;whiteSpace=wrap;fillColor=#f5f5f5;fontColor=#333333;strokeColor=#666666;" parent="1" vertex="1">
          <mxGeometry x="1277.5" y="450" width="110" height="110" as="geometry" />
        </mxCell>
        <mxCell id="m44FBqQ0kkHXFcUS6Irk-45" value="" style="endArrow=classic;html=1;rounded=0;exitX=0.5;exitY=1;exitDx=0;exitDy=0;fillColor=#f5f5f5;strokeColor=#666666;" parent="1" edge="1">
          <mxGeometry width="50" height="50" relative="1" as="geometry">
            <mxPoint x="1332.5" y="410" as="sourcePoint" />
            <mxPoint x="1332.5" y="450" as="targetPoint" />
          </mxGeometry>
        </mxCell>
        <mxCell id="m44FBqQ0kkHXFcUS6Irk-46" value="Login" style="shape=parallelogram;html=1;strokeWidth=2;perimeter=parallelogramPerimeter;whiteSpace=wrap;rounded=1;arcSize=12;size=0.23;fillColor=#f5f5f5;fontColor=#333333;strokeColor=#666666;" parent="1" vertex="1">
          <mxGeometry x="1272.5" y="350" width="120" height="60" as="geometry" />
        </mxCell>
        <mxCell id="m44FBqQ0kkHXFcUS6Irk-47" value="" style="endArrow=classic;html=1;rounded=0;exitX=0.5;exitY=1;exitDx=0;exitDy=0;exitPerimeter=0;entryX=0.5;entryY=0;entryDx=0;entryDy=0;fillColor=#f5f5f5;strokeColor=#666666;" parent="1" source="m44FBqQ0kkHXFcUS6Irk-44" target="m44FBqQ0kkHXFcUS6Irk-52" edge="1">
          <mxGeometry width="50" height="50" relative="1" as="geometry">
            <mxPoint x="1392.5" y="630" as="sourcePoint" />
            <mxPoint x="1332.5" y="600" as="targetPoint" />
          </mxGeometry>
        </mxCell>
        <mxCell id="m44FBqQ0kkHXFcUS6Irk-48" value="" style="endArrow=classic;html=1;rounded=0;exitX=1;exitY=0.5;exitDx=0;exitDy=0;exitPerimeter=0;entryX=0;entryY=0.5;entryDx=0;entryDy=0;fillColor=#f5f5f5;strokeColor=#666666;" parent="1" source="m44FBqQ0kkHXFcUS6Irk-44" target="m44FBqQ0kkHXFcUS6Irk-49" edge="1">
          <mxGeometry width="50" height="50" relative="1" as="geometry">
            <mxPoint x="1432.5" y="520" as="sourcePoint" />
            <mxPoint x="1432.5" y="505" as="targetPoint" />
          </mxGeometry>
        </mxCell>
        <mxCell id="m44FBqQ0kkHXFcUS6Irk-49" value="register email dan password" style="shape=parallelogram;html=1;strokeWidth=2;perimeter=parallelogramPerimeter;whiteSpace=wrap;rounded=1;arcSize=12;size=0.23;fillColor=#f5f5f5;fontColor=#333333;strokeColor=#666666;" parent="1" vertex="1">
          <mxGeometry x="1422.5" y="475" width="140" height="60" as="geometry" />
        </mxCell>
        <mxCell id="m44FBqQ0kkHXFcUS6Irk-50" value="No&amp;nbsp;" style="text;html=1;align=center;verticalAlign=middle;resizable=0;points=[];autosize=1;" parent="1" vertex="1">
          <mxGeometry x="1382.5" y="480" width="40" height="30" as="geometry" />
        </mxCell>
        <mxCell id="m44FBqQ0kkHXFcUS6Irk-51" value="Yes" style="text;html=1;align=center;verticalAlign=middle;resizable=0;points=[];autosize=1;" parent="1" vertex="1">
          <mxGeometry x="1292.5" y="560" width="40" height="30" as="geometry" />
        </mxCell>
        <mxCell id="m44FBqQ0kkHXFcUS6Irk-52" value="Input password&lt;br&gt;dan username" style="shape=parallelogram;html=1;strokeWidth=2;perimeter=parallelogramPerimeter;whiteSpace=wrap;rounded=1;arcSize=12;size=0.23;fillColor=#f5f5f5;fontColor=#333333;strokeColor=#666666;" parent="1" vertex="1">
          <mxGeometry x="1270" y="600" width="125" height="60" as="geometry" />
        </mxCell>
        <mxCell id="m44FBqQ0kkHXFcUS6Irk-53" value="" style="endArrow=classic;html=1;rounded=0;exitX=1;exitY=0.5;exitDx=0;exitDy=0;entryX=1;entryY=0.5;entryDx=0;entryDy=0;fillColor=#f5f5f5;strokeColor=#666666;" parent="1" source="m44FBqQ0kkHXFcUS6Irk-49" target="m44FBqQ0kkHXFcUS6Irk-46" edge="1">
          <mxGeometry width="50" height="50" relative="1" as="geometry">
            <mxPoint x="1352.5" y="630" as="sourcePoint" />
            <mxPoint x="1402.5" y="580" as="targetPoint" />
            <Array as="points">
              <mxPoint x="1632.5" y="505" />
              <mxPoint x="1632.5" y="380" />
            </Array>
          </mxGeometry>
        </mxCell>
        <mxCell id="m44FBqQ0kkHXFcUS6Irk-54" value="" style="endArrow=classic;html=1;rounded=0;exitX=0.5;exitY=1;exitDx=0;exitDy=0;fillColor=#f5f5f5;strokeColor=#666666;" parent="1" source="m44FBqQ0kkHXFcUS6Irk-52" edge="1">
          <mxGeometry width="50" height="50" relative="1" as="geometry">
            <mxPoint x="1352.5" y="630" as="sourcePoint" />
            <mxPoint x="1332.5" y="710" as="targetPoint" />
          </mxGeometry>
        </mxCell>
        <mxCell id="m44FBqQ0kkHXFcUS6Irk-55" value="" style="edgeStyle=orthogonalEdgeStyle;rounded=0;orthogonalLoop=1;jettySize=auto;html=1;" parent="1" source="m44FBqQ0kkHXFcUS6Irk-56" target="m44FBqQ0kkHXFcUS6Irk-60" edge="1">
          <mxGeometry relative="1" as="geometry" />
        </mxCell>
        <mxCell id="m44FBqQ0kkHXFcUS6Irk-56" value="Apakah password&amp;nbsp;dan email sesuai ?" style="strokeWidth=2;html=1;shape=mxgraph.flowchart.decision;whiteSpace=wrap;fillColor=#f5f5f5;fontColor=#333333;strokeColor=#666666;" parent="1" vertex="1">
          <mxGeometry x="1277.5" y="710" width="110" height="110" as="geometry" />
        </mxCell>
        <mxCell id="m44FBqQ0kkHXFcUS6Irk-57" value="" style="endArrow=none;html=1;rounded=0;exitX=1;exitY=0.5;exitDx=0;exitDy=0;exitPerimeter=0;fillColor=#f5f5f5;strokeColor=#666666;" parent="1" source="m44FBqQ0kkHXFcUS6Irk-56" edge="1">
          <mxGeometry width="50" height="50" relative="1" as="geometry">
            <mxPoint x="1352.5" y="630" as="sourcePoint" />
            <mxPoint x="1632.5" y="500" as="targetPoint" />
            <Array as="points">
              <mxPoint x="1632.5" y="760" />
            </Array>
          </mxGeometry>
        </mxCell>
        <mxCell id="m44FBqQ0kkHXFcUS6Irk-58" value="No" style="text;html=1;align=center;verticalAlign=middle;resizable=0;points=[];autosize=1;" parent="1" vertex="1">
          <mxGeometry x="1372.5" y="740" width="40" height="30" as="geometry" />
        </mxCell>
        <mxCell id="m44FBqQ0kkHXFcUS6Irk-59" value="" style="edgeStyle=orthogonalEdgeStyle;rounded=0;orthogonalLoop=1;jettySize=auto;html=1;" parent="1" source="m44FBqQ0kkHXFcUS6Irk-60" target="m44FBqQ0kkHXFcUS6Irk-71" edge="1">
          <mxGeometry relative="1" as="geometry" />
        </mxCell>
        <mxCell id="m44FBqQ0kkHXFcUS6Irk-60" value="halaman:&lt;br&gt;dashboard&lt;br&gt;peminjaman&lt;br&gt;pengembalian" style="shape=process;whiteSpace=wrap;html=1;backgroundOutline=1;fillColor=#f5f5f5;fontColor=#333333;strokeColor=#666666;" parent="1" vertex="1">
          <mxGeometry x="1273.5" y="860" width="120" height="60" as="geometry" />
        </mxCell>
        <mxCell id="m44FBqQ0kkHXFcUS6Irk-61" value="" style="edgeStyle=orthogonalEdgeStyle;rounded=0;orthogonalLoop=1;jettySize=auto;html=1;" parent="1" source="m44FBqQ0kkHXFcUS6Irk-62" target="m44FBqQ0kkHXFcUS6Irk-60" edge="1">
          <mxGeometry relative="1" as="geometry" />
        </mxCell>
        <mxCell id="m44FBqQ0kkHXFcUS6Irk-62" value="a,b,c" style="ellipse;whiteSpace=wrap;html=1;aspect=fixed;fillColor=#f5f5f5;fontColor=#333333;strokeColor=#666666;" parent="1" vertex="1">
          <mxGeometry x="1430" y="865" width="50" height="50" as="geometry" />
        </mxCell>
        <mxCell id="m44FBqQ0kkHXFcUS6Irk-63" value="" style="edgeStyle=orthogonalEdgeStyle;rounded=0;orthogonalLoop=1;jettySize=auto;html=1;fillColor=#f5f5f5;strokeColor=#666666;" parent="1" source="m44FBqQ0kkHXFcUS6Irk-65" target="m44FBqQ0kkHXFcUS6Irk-68" edge="1">
          <mxGeometry relative="1" as="geometry" />
        </mxCell>
        <mxCell id="m44FBqQ0kkHXFcUS6Irk-64" value="" style="edgeStyle=orthogonalEdgeStyle;rounded=0;orthogonalLoop=1;jettySize=auto;html=1;" parent="1" source="m44FBqQ0kkHXFcUS6Irk-65" target="m44FBqQ0kkHXFcUS6Irk-83" edge="1">
          <mxGeometry relative="1" as="geometry" />
        </mxCell>
        <mxCell id="m44FBqQ0kkHXFcUS6Irk-65" value="peminjaman" style="rhombus;whiteSpace=wrap;html=1;fillColor=#f5f5f5;fontColor=#333333;strokeColor=#666666;" parent="1" vertex="1">
          <mxGeometry x="1293.5" y="1110" width="80" height="80" as="geometry" />
        </mxCell>
        <mxCell id="m44FBqQ0kkHXFcUS6Irk-66" value="" style="edgeStyle=orthogonalEdgeStyle;rounded=0;orthogonalLoop=1;jettySize=auto;html=1;" parent="1" source="m44FBqQ0kkHXFcUS6Irk-68" target="m44FBqQ0kkHXFcUS6Irk-81" edge="1">
          <mxGeometry relative="1" as="geometry" />
        </mxCell>
        <mxCell id="m44FBqQ0kkHXFcUS6Irk-67" value="" style="edgeStyle=orthogonalEdgeStyle;rounded=0;orthogonalLoop=1;jettySize=auto;html=1;" parent="1" source="m44FBqQ0kkHXFcUS6Irk-68" target="m44FBqQ0kkHXFcUS6Irk-79" edge="1">
          <mxGeometry relative="1" as="geometry" />
        </mxCell>
        <mxCell id="m44FBqQ0kkHXFcUS6Irk-68" value="pengembalian" style="rhombus;whiteSpace=wrap;html=1;fillColor=#f5f5f5;fontColor=#333333;strokeColor=#666666;" parent="1" vertex="1">
          <mxGeometry x="1293.5" y="1240" width="80" height="80" as="geometry" />
        </mxCell>
        <mxCell id="m44FBqQ0kkHXFcUS6Irk-69" value="" style="edgeStyle=orthogonalEdgeStyle;rounded=0;orthogonalLoop=1;jettySize=auto;html=1;fillColor=#f5f5f5;strokeColor=#666666;" parent="1" source="m44FBqQ0kkHXFcUS6Irk-71" target="m44FBqQ0kkHXFcUS6Irk-65" edge="1">
          <mxGeometry relative="1" as="geometry" />
        </mxCell>
        <mxCell id="m44FBqQ0kkHXFcUS6Irk-70" value="" style="edgeStyle=orthogonalEdgeStyle;rounded=0;orthogonalLoop=1;jettySize=auto;html=1;" parent="1" source="m44FBqQ0kkHXFcUS6Irk-71" target="m44FBqQ0kkHXFcUS6Irk-73" edge="1">
          <mxGeometry relative="1" as="geometry" />
        </mxCell>
        <mxCell id="m44FBqQ0kkHXFcUS6Irk-71" value="dashboard" style="rhombus;whiteSpace=wrap;html=1;fillColor=#f5f5f5;fontColor=#333333;strokeColor=#666666;" parent="1" vertex="1">
          <mxGeometry x="1293.5" y="980" width="80" height="80" as="geometry" />
        </mxCell>
        <mxCell id="m44FBqQ0kkHXFcUS6Irk-72" value="" style="edgeStyle=orthogonalEdgeStyle;rounded=0;orthogonalLoop=1;jettySize=auto;html=1;" parent="1" source="m44FBqQ0kkHXFcUS6Irk-73" target="m44FBqQ0kkHXFcUS6Irk-74" edge="1">
          <mxGeometry relative="1" as="geometry" />
        </mxCell>
        <mxCell id="m44FBqQ0kkHXFcUS6Irk-73" value="halaman dashboard" style="rounded=0;whiteSpace=wrap;html=1;fillColor=#f5f5f5;fontColor=#333333;strokeColor=#666666;" parent="1" vertex="1">
          <mxGeometry x="1422.5" y="990" width="120" height="60" as="geometry" />
        </mxCell>
        <mxCell id="m44FBqQ0kkHXFcUS6Irk-74" value="a" style="ellipse;whiteSpace=wrap;html=1;aspect=fixed;fillColor=#f5f5f5;fontColor=#333333;strokeColor=#666666;" parent="1" vertex="1">
          <mxGeometry x="1580" y="995" width="50" height="50" as="geometry" />
        </mxCell>
        <mxCell id="m44FBqQ0kkHXFcUS6Irk-75" value="Yes" style="text;html=1;align=center;verticalAlign=middle;resizable=0;points=[];autosize=1;strokeColor=none;fillColor=none;" parent="1" vertex="1">
          <mxGeometry x="1372.5" y="990" width="40" height="30" as="geometry" />
        </mxCell>
        <mxCell id="m44FBqQ0kkHXFcUS6Irk-76" value="No" style="text;html=1;align=center;verticalAlign=middle;resizable=0;points=[];autosize=1;strokeColor=none;fillColor=none;" parent="1" vertex="1">
          <mxGeometry x="1333.5" y="1060" width="40" height="30" as="geometry" />
        </mxCell>
        <mxCell id="m44FBqQ0kkHXFcUS6Irk-77" value="Yes" style="text;html=1;align=center;verticalAlign=middle;resizable=0;points=[];autosize=1;strokeColor=none;fillColor=none;" parent="1" vertex="1">
          <mxGeometry x="1355" y="1240" width="40" height="30" as="geometry" />
        </mxCell>
        <mxCell id="m44FBqQ0kkHXFcUS6Irk-78" value="" style="edgeStyle=orthogonalEdgeStyle;rounded=0;orthogonalLoop=1;jettySize=auto;html=1;" parent="1" source="m44FBqQ0kkHXFcUS6Irk-79" target="m44FBqQ0kkHXFcUS6Irk-89" edge="1">
          <mxGeometry relative="1" as="geometry" />
        </mxCell>
        <mxCell id="m44FBqQ0kkHXFcUS6Irk-79" value="logout" style="rounded=0;whiteSpace=wrap;html=1;fillColor=#f5f5f5;fontColor=#333333;strokeColor=#666666;" parent="1" vertex="1">
          <mxGeometry x="1130" y="1250" width="120" height="60" as="geometry" />
        </mxCell>
        <mxCell id="m44FBqQ0kkHXFcUS6Irk-80" value="" style="edgeStyle=orthogonalEdgeStyle;rounded=0;orthogonalLoop=1;jettySize=auto;html=1;" parent="1" source="m44FBqQ0kkHXFcUS6Irk-81" target="m44FBqQ0kkHXFcUS6Irk-85" edge="1">
          <mxGeometry relative="1" as="geometry" />
        </mxCell>
        <mxCell id="m44FBqQ0kkHXFcUS6Irk-81" value="halaman pengembalian" style="rounded=0;whiteSpace=wrap;html=1;fillColor=#f5f5f5;fontColor=#333333;strokeColor=#666666;" parent="1" vertex="1">
          <mxGeometry x="1400" y="1250" width="120" height="60" as="geometry" />
        </mxCell>
        <mxCell id="m44FBqQ0kkHXFcUS6Irk-82" value="" style="edgeStyle=orthogonalEdgeStyle;rounded=0;orthogonalLoop=1;jettySize=auto;html=1;" parent="1" source="m44FBqQ0kkHXFcUS6Irk-83" target="m44FBqQ0kkHXFcUS6Irk-84" edge="1">
          <mxGeometry relative="1" as="geometry" />
        </mxCell>
        <mxCell id="m44FBqQ0kkHXFcUS6Irk-83" value="halaman peminjaman" style="rounded=0;whiteSpace=wrap;html=1;fillColor=#f5f5f5;fontColor=#333333;strokeColor=#666666;" parent="1" vertex="1">
          <mxGeometry x="1410" y="1120" width="120" height="60" as="geometry" />
        </mxCell>
        <mxCell id="m44FBqQ0kkHXFcUS6Irk-84" value="b" style="ellipse;whiteSpace=wrap;html=1;aspect=fixed;fillColor=#f5f5f5;fontColor=#333333;strokeColor=#666666;" parent="1" vertex="1">
          <mxGeometry x="1570" y="1125" width="50" height="50" as="geometry" />
        </mxCell>
        <mxCell id="m44FBqQ0kkHXFcUS6Irk-85" value="c" style="ellipse;whiteSpace=wrap;html=1;aspect=fixed;fillColor=#f5f5f5;fontColor=#333333;strokeColor=#666666;" parent="1" vertex="1">
          <mxGeometry x="1562.5" y="1255" width="50" height="50" as="geometry" />
        </mxCell>
        <mxCell id="m44FBqQ0kkHXFcUS6Irk-86" value="No" style="text;html=1;align=center;verticalAlign=middle;resizable=0;points=[];autosize=1;strokeColor=none;fillColor=none;" parent="1" vertex="1">
          <mxGeometry x="1260" y="1250" width="40" height="30" as="geometry" />
        </mxCell>
        <mxCell id="m44FBqQ0kkHXFcUS6Irk-87" value="Yes" style="text;html=1;align=center;verticalAlign=middle;resizable=0;points=[];autosize=1;strokeColor=none;fillColor=none;" parent="1" vertex="1">
          <mxGeometry x="1360" y="1118" width="40" height="30" as="geometry" />
        </mxCell>
        <mxCell id="m44FBqQ0kkHXFcUS6Irk-88" value="No" style="text;html=1;align=center;verticalAlign=middle;resizable=0;points=[];autosize=1;strokeColor=none;fillColor=none;" parent="1" vertex="1">
          <mxGeometry x="1330" y="1188" width="40" height="30" as="geometry" />
        </mxCell>
        <mxCell id="m44FBqQ0kkHXFcUS6Irk-89" value="Berhenti" style="strokeWidth=2;html=1;shape=mxgraph.flowchart.start_1;whiteSpace=wrap;fillColor=#f5f5f5;fontColor=#333333;strokeColor=#666666;" parent="1" vertex="1">
          <mxGeometry x="1140" y="1360" width="100" height="60" as="geometry" />
        </mxCell>
        <mxCell id="m44FBqQ0kkHXFcUS6Irk-90" value="Yes" style="text;html=1;align=center;verticalAlign=middle;resizable=0;points=[];autosize=1;strokeColor=none;fillColor=none;" parent="1" vertex="1">
          <mxGeometry x="350" y="798" width="40" height="30" as="geometry" />
        </mxCell>
        <mxCell id="m44FBqQ0kkHXFcUS6Irk-91" value="Yes" style="text;html=1;align=center;verticalAlign=middle;resizable=0;points=[];autosize=1;strokeColor=none;fillColor=none;" parent="1" vertex="1">
          <mxGeometry x="1300" y="828" width="40" height="30" as="geometry" />
        </mxCell>
        <mxCell id="z9iDMmw1W1BYFaa8jMhb-4" value="" style="edgeStyle=orthogonalEdgeStyle;rounded=0;orthogonalLoop=1;jettySize=auto;html=1;" edge="1" parent="1" source="z9iDMmw1W1BYFaa8jMhb-1" target="z9iDMmw1W1BYFaa8jMhb-3">
          <mxGeometry relative="1" as="geometry" />
        </mxCell>
        <mxCell id="z9iDMmw1W1BYFaa8jMhb-5" value="" style="edgeStyle=orthogonalEdgeStyle;rounded=0;orthogonalLoop=1;jettySize=auto;html=1;" edge="1" parent="1" source="z9iDMmw1W1BYFaa8jMhb-1" target="m44FBqQ0kkHXFcUS6Irk-23">
          <mxGeometry relative="1" as="geometry" />
        </mxCell>
        <mxCell id="z9iDMmw1W1BYFaa8jMhb-1" value="Pengembalian" style="rhombus;whiteSpace=wrap;html=1;fillColor=#f5f5f5;fontColor=#333333;strokeColor=#666666;" vertex="1" parent="1">
          <mxGeometry x="350.25" y="1320" width="86.5" height="80" as="geometry" />
        </mxCell>
        <mxCell id="z9iDMmw1W1BYFaa8jMhb-9" value="" style="edgeStyle=orthogonalEdgeStyle;rounded=0;orthogonalLoop=1;jettySize=auto;html=1;" edge="1" parent="1" source="z9iDMmw1W1BYFaa8jMhb-3" target="z9iDMmw1W1BYFaa8jMhb-8">
          <mxGeometry relative="1" as="geometry" />
        </mxCell>
        <mxCell id="z9iDMmw1W1BYFaa8jMhb-3" value="Halaman persetujuan pengembalian" style="rounded=0;whiteSpace=wrap;html=1;fillColor=#f5f5f5;fontColor=#333333;strokeColor=#666666;" vertex="1" parent="1">
          <mxGeometry x="460" y="1330" width="120" height="60" as="geometry" />
        </mxCell>
        <mxCell id="z9iDMmw1W1BYFaa8jMhb-6" value="No" style="text;html=1;align=center;verticalAlign=middle;resizable=0;points=[];autosize=1;strokeColor=none;fillColor=none;" vertex="1" parent="1">
          <mxGeometry x="313.5" y="1330" width="40" height="30" as="geometry" />
        </mxCell>
        <mxCell id="z9iDMmw1W1BYFaa8jMhb-7" value="Yes" style="text;html=1;align=center;verticalAlign=middle;resizable=0;points=[];autosize=1;strokeColor=none;fillColor=none;" vertex="1" parent="1">
          <mxGeometry x="410" y="1318" width="40" height="30" as="geometry" />
        </mxCell>
        <mxCell id="z9iDMmw1W1BYFaa8jMhb-8" value="d" style="ellipse;whiteSpace=wrap;html=1;aspect=fixed;fillColor=#f5f5f5;fontColor=#333333;strokeColor=#666666;" vertex="1" parent="1">
          <mxGeometry x="610" y="1335" width="50" height="50" as="geometry" />
        </mxCell>
      </root>
    </mxGraphModel>
  </diagram>
</mxfile>
